<svg width="386" height="318" viewBox="0 0 386 318" fill="none" xmlns="http://www.w3.org/2000/svg">
<path d="M73.1352 61.3296V43.5565H28.4406L48.7563 9.0117L32.2498 0L2.79199 52.3179L32.2498 104.886L48.7563 95.8744L28.4406 61.3296H73.1352Z" fill="white"/>
<path d="M119.863 0L103.61 9.0117L123.672 43.5565H79.2314V61.3296H123.672L103.61 95.8744L119.863 104.886L149.067 52.3179L119.863 0Z" fill="white"/>
<path d="M368.224 271.853C368.224 286.872 355.78 298.888 340.797 298.888C331.909 298.888 324.291 294.883 319.466 288.625L348.67 224.291L364.922 188.745C364.922 188.745 321.751 211.525 304.483 215.78L219.665 69.5904H203.92L196.302 82.8576L276.803 221.538C256.741 224.792 230.585 227.545 197.825 227.796V254.08C250.9 253.579 288.23 247.321 311.593 241.063L297.626 271.352L291.532 284.619L291.786 284.87C287.469 292.38 279.85 297.636 270.962 298.638V316.411C284.675 315.409 296.611 308.651 304.229 298.387C312.609 309.402 325.561 316.661 340.543 316.661C365.43 316.661 386 296.385 386 271.853H368.224Z" fill="white"/>
<path d="M240.486 271.853H222.71C222.71 286.872 210.266 298.888 195.284 298.888C180.301 298.888 167.603 286.872 167.603 271.853H149.827C149.827 285.871 139.161 297.136 125.448 298.638V316.411C139.161 315.41 151.097 308.651 158.715 298.387C167.095 309.402 180.047 316.661 195.03 316.661C210.012 316.661 223.218 309.402 231.344 298.387C238.962 308.651 250.898 315.66 264.611 316.411V298.638C251.152 297.386 240.486 285.871 240.486 271.853Z" fill="white"/>
<path d="M271.215 37.0482H184.873L81.7708 215.78C64.5024 211.274 18.2842 187.243 18.2842 187.243L73.1366 278.862L69.0735 285.871C64.2485 293.881 55.3604 299.389 45.4564 299.389C30.2196 299.389 18.0302 287.123 18.0302 272.354H0C0 296.885 20.3157 317.162 45.4564 317.162C61.963 317.162 75.93 308.651 84.0563 295.884C91.6747 307.9 104.372 316.16 119.609 317.162V299.389C110.467 298.387 102.848 292.88 98.5313 285.12L98.7852 284.87L92.1826 272.103L76.6919 242.315C100.563 248.322 138.147 254.58 191.476 254.831V228.296C157.193 228.296 130.021 225.543 109.197 222.038L178.27 102.633L200.364 63.8329H248.36H270.961L262.327 50.5657L271.215 37.0482Z" fill="white"/>
</svg>
