<svg width="149" height="47" viewBox="0 0 149 47" fill="none" xmlns="http://www.w3.org/2000/svg">
<path d="M95.2109 36.3516H92.1191V39.0688H95.2109V43.9891H98.3399V31.6883H95.2109V36.3516Z" fill="#FF0023"/>
<path d="M79.678 38.775H86.6065V37.4164C86.6065 36.4984 86.4947 35.6906 86.234 34.9563C85.9732 34.2219 85.6007 33.5977 85.1537 33.0836C84.6695 32.5695 84.1107 32.1656 83.4402 31.9086C82.7697 31.6149 82.0247 31.5047 81.168 31.5047C80.3112 31.5047 79.5662 31.6516 78.8957 31.9453C78.2252 32.2391 77.6665 32.643 77.1822 33.1938C76.7352 33.7445 76.3627 34.4055 76.102 35.1766C75.8412 35.9477 75.7295 36.8289 75.7295 37.7836C75.7295 41.9695 77.6665 44.0992 81.5032 44.0992C81.9875 44.0992 82.4717 44.0625 82.8815 43.9891C83.2912 43.9156 83.701 43.8055 84.0735 43.6586C84.2597 43.5852 84.446 43.5117 84.6322 43.4016C84.7812 43.3281 84.9675 43.218 85.1165 43.1078C85.2655 42.9977 85.4517 42.8508 85.638 42.7039C85.8242 42.557 86.0105 42.3735 86.2712 42.1531L84.3715 40.3172C84.1107 40.5742 83.8872 40.7945 83.701 40.9047C83.5147 41.0149 83.3285 41.125 83.105 41.2352C82.658 41.4188 82.211 41.4922 81.6522 41.4922C79.9015 41.4922 78.9702 40.611 78.8585 38.8485C78.8585 38.8485 78.8585 38.8117 78.8585 38.7383C78.8585 38.7383 78.8585 38.7383 78.8585 38.7016C78.8585 38.3711 78.8212 37.4531 78.8585 36.425C78.8957 35.6539 79.1192 35.0664 79.529 34.6258C79.9387 34.1852 80.5347 33.9281 81.2425 33.9281C81.9875 33.9281 82.5462 34.1484 82.956 34.5891C83.3657 35.0297 83.5892 35.6906 83.6637 36.5352H79.7897V38.7383H79.678V38.775Z" fill="#FF0023"/>
<path d="M91.2255 36.3516V34.1852V31.6883H88.1338V43.9891H91.2255V40.9047V39.0688V36.3516Z" fill="#FF0023"/>
<path d="M141.885 19.718H141.848V15.0547H138.756V27.3555H141.848V22.4352H141.885V19.718Z" fill="#FF0023"/>
<path d="M145.908 15.0547V19.718H142.742V22.4352H145.908V27.3555H149V15.0547H145.908Z" fill="#FF0023"/>
<path d="M106.163 24.675C105.604 24.6016 105.194 24.3445 104.934 23.9039C104.598 23.3898 104.412 22.5086 104.412 21.3336C104.412 20.9297 104.412 20.5258 104.449 20.0851C104.487 19.6445 104.561 19.2406 104.673 18.8734C104.822 18.5062 105.008 18.2125 105.306 17.9555C105.53 17.7719 105.79 17.6984 106.126 17.625V14.8344C104.71 14.9078 103.593 15.4219 102.736 16.3398C102.475 16.5969 102.252 16.8906 102.065 17.2211C101.879 17.5148 101.73 17.882 101.618 18.2492C101.507 18.6164 101.432 19.057 101.395 19.5344C101.358 20.0117 101.32 20.5258 101.32 21.15C101.32 21.7742 101.358 22.325 101.395 22.8023C101.432 23.2797 101.507 23.7203 101.618 24.0875C101.73 24.4547 101.879 24.8219 102.065 25.1156C102.252 25.4094 102.475 25.7031 102.736 25.9969C103.63 26.9148 104.785 27.4289 106.126 27.5023L106.163 24.675Z" fill="#FF0023"/>
<path d="M111.564 18.2859C111.34 17.5883 110.968 16.964 110.483 16.4133C109.59 15.4953 108.435 15.0179 107.094 14.9078V17.6984C107.392 17.7351 107.652 17.8453 107.839 17.9922C108.137 18.2125 108.36 18.5062 108.509 18.8367C108.658 19.1672 108.733 19.5711 108.77 19.975C108.807 20.3789 108.807 20.7828 108.807 21.1867C108.807 21.5906 108.807 22.0312 108.77 22.4351C108.733 22.839 108.658 23.2429 108.509 23.5734C108.36 23.9039 108.137 24.1976 107.876 24.4179C107.69 24.5648 107.429 24.675 107.094 24.7117V27.5023C108.509 27.4289 109.627 26.9148 110.483 25.9969C110.744 25.7398 110.968 25.4461 111.154 25.1156C111.34 24.8219 111.489 24.4547 111.601 24.0875C111.713 23.7203 111.787 23.2797 111.825 22.8023C111.862 22.325 111.899 21.7742 111.899 21.1133C111.862 19.9383 111.787 18.9836 111.564 18.2859Z" fill="#FF0023"/>
<path d="M67.0126 40.4273C67.1616 39.8398 67.3106 39.1789 67.4596 38.4445C67.6459 37.3797 67.7576 36.0211 67.7576 34.4055H70.5514V40.3906H73.6431V31.6516H64.8149C64.8149 32.9734 64.7776 34.1117 64.7404 35.0297C64.7031 35.9844 64.6286 36.8289 64.5169 37.5633C64.4051 38.2976 64.2934 38.9586 64.1444 39.5461C64.0699 39.8398 63.9954 40.0969 63.9209 40.3539H67.0126V40.4273Z" fill="#FF0023"/>
<path d="M74.8348 41.2719H62.356H62.207V47H65.1498V43.989H72.2645V47H75.2073V41.2719H74.8348Z" fill="#FF0023"/>
<path d="M103.48 41.6024V38.518V31.6883H100.426V43.9891H103.48V41.6024Z" fill="#FF0023"/>
<path d="M110.26 38.4812C110.074 38.0039 109.776 37.6 109.403 37.2328C109.031 36.9023 108.584 36.6086 108.099 36.425C107.578 36.2414 107.019 36.1312 106.386 36.1312H104.3V38.518H105.827C106.349 38.518 106.758 38.6648 107.019 38.9219C107.317 39.2156 107.466 39.5828 107.466 40.0234C107.466 40.5008 107.317 40.868 107.019 41.1617C106.721 41.4555 106.311 41.5656 105.827 41.5656H104.3V43.9523H106.386C106.982 43.9523 107.541 43.8422 108.062 43.6586C108.584 43.475 109.031 43.1812 109.403 42.8508C109.776 42.5203 110.074 42.0797 110.26 41.6023C110.446 41.125 110.558 40.5742 110.558 40.0234C110.558 39.4726 110.483 38.9586 110.26 38.4812Z" fill="#FF0023"/>
<path d="M67.832 19.718H70.961V22.4352H67.832V27.3555H64.7402V15.0547H67.832V19.718Z" fill="#FF0023"/>
<path d="M71.8555 19.718V17.5516V15.0547H74.9472V27.3555H71.8555V24.2711V22.4352V19.718Z" fill="#FF0023"/>
<path d="M132.684 16.5602L129.183 22.3984L129.145 15.0547H126.054V27.3555H129.145L132.684 21.3703V16.5602Z" fill="#FF0023"/>
<path d="M133.578 15.0547L133.541 15.0914V19.8648L133.578 19.8281V27.3555H136.707V15.0547H133.578Z" fill="#FF0023"/>
<path d="M81.0557 20.9297V25.8133L84.5944 19.8281V27.3555H87.7234V15.0547H84.5944L81.0557 20.9297Z" fill="#FF0023"/>
<path d="M80.1993 20.4156L80.1621 15.0547H77.0703V27.3555H80.1621L80.1993 27.3188V20.4156Z" fill="#FF0023"/>
<path d="M92.9013 24.5648V16.0094H92.9386V15.0547H89.8096V27.3555H92.9386V24.5648H92.9013Z" fill="#FF0023"/>
<path d="M99.9416 24.6383C99.6436 24.6383 99.4201 24.6016 99.2711 24.4914C99.1221 24.3812 98.9731 24.1976 98.8613 23.9039L98.2653 22.4351C98.0791 21.9945 97.8929 21.6641 97.6694 21.4437C97.4459 21.2234 97.1106 21.0398 96.7381 20.893C97.2969 20.6726 97.7066 20.3055 97.9301 19.718L98.3026 18.543C98.4143 18.1758 98.5634 17.9555 98.7496 17.8453C98.8986 17.7351 99.1594 17.6617 99.5319 17.6617H99.9788V15.018H98.8613C98.0418 15.018 97.4086 15.1648 96.9244 15.4953C96.4774 15.8258 96.1048 16.3398 95.8441 17.0742L95.2481 18.7266C95.1363 19.057 94.9128 19.3141 94.6521 19.5344C94.3913 19.718 94.0933 19.8281 93.7581 19.8281H93.6836V22.3984C93.9816 22.4351 94.2796 22.4719 94.5403 22.582C94.8756 22.6922 95.1363 23.0226 95.3598 23.5367L96.0303 25.2625C96.3656 26.107 96.8126 26.6945 97.3341 26.9883C97.8556 27.282 98.5633 27.4289 99.4573 27.4289H100.463V24.7117H99.9416V24.6383Z" fill="#FF0023"/>
<path d="M118.902 15.0547H114.916C114.916 16.5969 114.879 17.882 114.842 18.9469C114.804 20.0484 114.73 20.9297 114.655 21.6641C114.581 22.3984 114.469 22.9492 114.32 23.3898C114.208 23.7938 114.059 24.1242 113.873 24.3445C113.687 24.5648 113.501 24.675 113.314 24.7484C113.091 24.7852 112.867 24.8219 112.644 24.8219H112.271V27.4289H113.426C114.171 27.4289 114.842 27.3188 115.4 27.0984C115.959 26.8781 116.443 26.4008 116.816 25.7398C117.188 25.0422 117.449 24.0875 117.635 22.8023C117.822 21.5539 117.896 19.8648 117.896 17.8453H118.939V15.0547H118.902Z" fill="#FF0023"/>
<path d="M119.796 15.0547V17.7719H120.839V27.3555H123.931V15.0547H119.796Z" fill="#FF0023"/>
<path d="M10.7284 8.99609V6.38906H4.17241L7.15241 1.32187L4.73116 0L0.410156 7.67422L4.73116 15.3852L7.15241 14.0633L4.17241 8.99609H10.7284Z" fill="#FF0023"/>
<path d="M17.5821 0L15.1981 1.32187L18.1408 6.38906H11.6221V8.99609H18.1408L15.1981 14.0633L17.5821 15.3852L21.8658 7.67422L17.5821 0Z" fill="#FF0023"/>
<path d="M54.0122 39.8766C54.0122 42.0797 52.1869 43.8422 49.9892 43.8422C48.6854 43.8422 47.5679 43.2547 46.8602 42.3367L51.1439 32.9L53.5279 27.6859C53.5279 27.6859 47.1954 31.0273 44.6624 31.6516L32.2209 10.2078H29.9114L28.7939 12.1539L40.6022 32.4961C37.6594 32.9734 33.8227 33.3773 29.0174 33.4141V37.2695C36.8027 37.1961 42.2784 36.2781 45.7054 35.3602L43.6567 39.8031L42.7627 41.7492L42.7999 41.7859C42.1667 42.8875 41.0492 43.6586 39.7454 43.8055V46.4125C41.7569 46.2656 43.5077 45.2742 44.6252 43.7687C45.8544 45.3844 47.7542 46.4492 49.9519 46.4492C53.6024 46.4492 56.6197 43.475 56.6197 39.8766H54.0122Z" fill="#FF0023"/>
<path d="M35.2756 39.8766H32.6681C32.6681 42.0797 30.8429 43.8422 28.6451 43.8422C26.4474 43.8422 24.5849 42.0797 24.5849 39.8766H21.9774C21.9774 41.9328 20.4129 43.5852 18.4014 43.8055V46.4125C20.4129 46.2656 22.1636 45.2742 23.2811 43.7687C24.5104 45.3844 26.4101 46.4492 28.6079 46.4492C30.8056 46.4492 32.7426 45.3844 33.9346 43.7687C35.0521 45.2742 36.8029 46.3023 38.8144 46.4125V43.8055C36.8401 43.6219 35.2756 41.9328 35.2756 39.8766Z" fill="#FF0023"/>
<path d="M39.783 5.43437H27.118L11.9945 31.6516C9.4615 30.9906 2.682 27.4656 2.682 27.4656L10.728 40.9047L10.132 41.9328C9.42425 43.1078 8.1205 43.9156 6.66775 43.9156C4.43275 43.9156 2.64475 42.1164 2.64475 39.95H0C0 43.5484 2.98 46.5227 6.66775 46.5227C9.089 46.5227 11.1377 45.2742 12.3297 43.4016C13.4472 45.1641 15.3097 46.3758 17.5447 46.5227V43.9156C16.2037 43.7687 15.0862 42.9609 14.453 41.8227L14.4902 41.7859L13.5217 39.9133L11.2495 35.5437C14.751 36.425 20.264 37.343 28.0865 37.3797V33.4875C23.0577 33.4875 19.072 33.0836 16.0175 32.5695L26.1495 15.0547L29.3902 9.36328H36.4305H39.7457L38.4792 7.41718L39.783 5.43437Z" fill="#FF0023"/>
</svg>
