<svg width="149" height="47" viewBox="0 0 149 47" fill="none" xmlns="http://www.w3.org/2000/svg">
<path d="M95.2109 36.3516H92.1191V39.0688H95.2109V43.9891H98.3399V31.6883H95.2109V36.3516Z" fill="white"/>
<path d="M79.6777 38.775H86.6062V37.4164C86.6062 36.4984 86.4945 35.6906 86.2337 34.9563C85.973 34.2219 85.6005 33.5977 85.1535 33.0836C84.6692 32.5695 84.1105 32.1656 83.44 31.9086C82.7695 31.6149 82.0245 31.5047 81.1677 31.5047C80.311 31.5047 79.566 31.6516 78.8955 31.9453C78.225 32.2391 77.6662 32.643 77.182 33.1938C76.735 33.7445 76.3625 34.4055 76.1017 35.1766C75.841 35.9477 75.7292 36.8289 75.7292 37.7836C75.7292 41.9695 77.6662 44.0992 81.503 44.0992C81.9872 44.0992 82.4715 44.0625 82.8812 43.9891C83.291 43.9156 83.7007 43.8055 84.0732 43.6586C84.2595 43.5852 84.4457 43.5117 84.632 43.4016C84.781 43.3281 84.9672 43.218 85.1162 43.1078C85.2652 42.9977 85.4515 42.8508 85.6377 42.7039C85.824 42.557 86.0102 42.3735 86.271 42.1531L84.3712 40.3172C84.1105 40.5742 83.887 40.7945 83.7007 40.9047C83.5145 41.0149 83.3282 41.125 83.1047 41.2352C82.6577 41.4188 82.2107 41.4922 81.652 41.4922C79.9012 41.4922 78.97 40.611 78.8582 38.8485C78.8582 38.8485 78.8582 38.8117 78.8582 38.7383C78.8582 38.7383 78.8582 38.7383 78.8582 38.7016C78.8582 38.3711 78.821 37.4531 78.8582 36.425C78.8955 35.6539 79.119 35.0664 79.5287 34.6258C79.9385 34.1852 80.5345 33.9281 81.2422 33.9281C81.9872 33.9281 82.546 34.1484 82.9557 34.5891C83.3655 35.0297 83.589 35.6906 83.6635 36.5352H79.7895V38.7383H79.6777V38.775Z" fill="white"/>
<path d="M91.2253 36.3516V34.1852V31.6883H88.1335V43.9891H91.2253V40.9047V39.0688V36.3516Z" fill="white"/>
<path d="M141.885 19.718H141.848V15.0547H138.756V27.3555H141.848V22.4352H141.885V19.718Z" fill="white"/>
<path d="M145.908 15.0547V19.718H142.742V22.4352H145.908V27.3555H149V15.0547H145.908Z" fill="white"/>
<path d="M106.162 24.675C105.604 24.6015 105.194 24.3445 104.933 23.9039C104.598 23.3898 104.412 22.5086 104.412 21.3336C104.412 20.9297 104.412 20.5258 104.449 20.0851C104.486 19.6445 104.561 19.2406 104.672 18.8734C104.821 18.5062 105.008 18.2125 105.306 17.9554C105.529 17.7719 105.79 17.6984 106.125 17.625V14.8344C104.71 14.9078 103.592 15.4219 102.735 16.3398C102.475 16.5969 102.251 16.8906 102.065 17.2211C101.879 17.5148 101.73 17.882 101.618 18.2492C101.506 18.6164 101.432 19.057 101.394 19.5344C101.357 20.0117 101.32 20.5258 101.32 21.15C101.32 21.7742 101.357 22.325 101.394 22.8023C101.432 23.2797 101.506 23.7203 101.618 24.0875C101.73 24.4547 101.879 24.8219 102.065 25.1156C102.251 25.4094 102.475 25.7031 102.735 25.9969C103.629 26.9148 104.784 27.4289 106.125 27.5023L106.162 24.675Z" fill="white"/>
<path d="M111.564 18.2859C111.34 17.5882 110.968 16.964 110.483 16.4132C109.59 15.4953 108.435 15.0179 107.094 14.9078V17.6984C107.392 17.7351 107.652 17.8453 107.839 17.9922C108.137 18.2125 108.36 18.5062 108.509 18.8367C108.658 19.1672 108.733 19.5711 108.77 19.975C108.807 20.3789 108.807 20.7828 108.807 21.1867C108.807 21.5906 108.807 22.0312 108.77 22.4351C108.733 22.839 108.658 23.2429 108.509 23.5734C108.36 23.9039 108.137 24.1976 107.876 24.4179C107.69 24.5648 107.429 24.675 107.094 24.7117V27.5023C108.509 27.4289 109.627 26.9148 110.483 25.9968C110.744 25.7398 110.968 25.4461 111.154 25.1156C111.34 24.8218 111.489 24.4547 111.601 24.0875C111.713 23.7203 111.787 23.2797 111.825 22.8023C111.862 22.325 111.899 21.7742 111.899 21.1132C111.862 19.9382 111.787 18.9836 111.564 18.2859Z" fill="white"/>
<path d="M67.0126 40.4273C67.1616 39.8398 67.3106 39.1789 67.4596 38.4445C67.6459 37.3797 67.7576 36.0211 67.7576 34.4055H70.5514V40.3906H73.6431V31.6516H64.8149C64.8149 32.9734 64.7776 34.1117 64.7404 35.0297C64.7031 35.9844 64.6286 36.8289 64.5169 37.5633C64.4051 38.2976 64.2934 38.9586 64.1444 39.5461C64.0699 39.8398 63.9954 40.0969 63.9209 40.3539H67.0126V40.4273Z" fill="white"/>
<path d="M74.8353 41.2719H62.3565H62.2075V47H65.1503V43.989H72.265V47H75.2078V41.2719H74.8353Z" fill="white"/>
<path d="M103.481 41.6024V38.518V31.6883H100.426V43.9891H103.481V41.6024Z" fill="white"/>
<path d="M110.26 38.4812C110.074 38.0039 109.776 37.6 109.403 37.2328C109.031 36.9023 108.584 36.6086 108.1 36.425C107.578 36.2414 107.019 36.1312 106.386 36.1312H104.3V38.5179H105.827C106.349 38.5179 106.759 38.6648 107.019 38.9218C107.317 39.2156 107.466 39.5828 107.466 40.0234C107.466 40.5008 107.317 40.8679 107.019 41.1617C106.721 41.4554 106.312 41.5656 105.827 41.5656H104.3V43.9523H106.386C106.982 43.9523 107.541 43.8422 108.062 43.6586C108.584 43.475 109.031 43.1812 109.403 42.8508C109.776 42.5203 110.074 42.0797 110.26 41.6023C110.446 41.125 110.558 40.5742 110.558 40.0234C110.558 39.4726 110.484 38.9586 110.26 38.4812Z" fill="white"/>
<path d="M67.8322 19.718H70.9612V22.4352H67.8322V27.3555H64.7405V15.0547H67.8322V19.718Z" fill="white"/>
<path d="M71.8552 19.718V17.5516V15.0547H74.947V27.3555H71.8552V24.2711V22.4352V19.718Z" fill="white"/>
<path d="M132.684 16.5602L129.183 22.3984L129.146 15.0547H126.054V27.3555H129.146L132.684 21.3703V16.5602Z" fill="white"/>
<path d="M133.579 15.0547L133.541 15.0914V19.8648L133.579 19.8281V27.3555H136.708V15.0547H133.579Z" fill="white"/>
<path d="M81.0559 20.9297V25.8133L84.5947 19.8281V27.3555H87.7236V15.0547H84.5947L81.0559 20.9297Z" fill="white"/>
<path d="M80.1993 20.4156L80.1621 15.0547H77.0703V27.3555H80.1621L80.1993 27.3188V20.4156Z" fill="white"/>
<path d="M92.9016 24.5648V16.0094H92.9388V15.0547H89.8098V27.3555H92.9388V24.5648H92.9016Z" fill="white"/>
<path d="M99.9418 24.6383C99.6438 24.6383 99.4203 24.6015 99.2713 24.4914C99.1223 24.3812 98.9733 24.1976 98.8616 23.9039L98.2656 22.4351C98.0793 21.9945 97.8931 21.664 97.6696 21.4437C97.4461 21.2234 97.1108 21.0398 96.7383 20.8929C97.2971 20.6726 97.7068 20.3054 97.9303 19.7179L98.3028 18.5429C98.4146 18.1758 98.5636 17.9554 98.7498 17.8453C98.8988 17.7351 99.1596 17.6617 99.5321 17.6617H99.9791V15.0179H98.8616C98.0421 15.0179 97.4088 15.1648 96.9246 15.4953C96.4776 15.8258 96.1051 16.3398 95.8443 17.0742L95.2483 18.7265C95.1366 19.057 94.9131 19.314 94.6523 19.5344C94.3916 19.7179 94.0936 19.8281 93.7583 19.8281H93.6838V22.3984C93.9818 22.4351 94.2798 22.4719 94.5406 22.582C94.8758 22.6922 95.1366 23.0226 95.3601 23.5367L96.0306 25.2625C96.3658 26.107 96.8128 26.6945 97.3343 26.9883C97.8558 27.282 98.5636 27.4289 99.4576 27.4289H100.463V24.7117H99.9418V24.6383Z" fill="white"/>
<path d="M118.902 15.0547H114.916C114.916 16.5969 114.879 17.882 114.842 18.9469C114.804 20.0484 114.73 20.9297 114.655 21.6641C114.581 22.3984 114.469 22.9492 114.32 23.3898C114.208 23.7938 114.059 24.1242 113.873 24.3445C113.687 24.5648 113.501 24.675 113.314 24.7484C113.091 24.7852 112.867 24.8219 112.644 24.8219H112.271V27.4289H113.426C114.171 27.4289 114.842 27.3188 115.4 27.0984C115.959 26.8781 116.443 26.4008 116.816 25.7398C117.188 25.0422 117.449 24.0875 117.635 22.8023C117.822 21.5539 117.896 19.8648 117.896 17.8453H118.939V15.0547H118.902Z" fill="white"/>
<path d="M119.796 15.0547V17.7719H120.839V27.3555H123.931V15.0547H119.796Z" fill="white"/>
<path d="M10.7279 8.99609V6.38906H4.17192L7.15192 1.32187L4.73067 0L0.409668 7.67422L4.73067 15.3852L7.15192 14.0633L4.17192 8.99609H10.7279Z" fill="white"/>
<path d="M17.5821 0L15.1981 1.32187L18.1408 6.38906H11.6221V8.99609H18.1408L15.1981 14.0633L17.5821 15.3852L21.8658 7.67422L17.5821 0Z" fill="white"/>
<path d="M54.0124 39.8766C54.0124 42.0797 52.1872 43.8422 49.9894 43.8422C48.6857 43.8422 47.5682 43.2547 46.8604 42.3367L51.1442 32.9L53.5282 27.6859C53.5282 27.6859 47.1957 31.0274 44.6627 31.6516L32.2212 10.2078H29.9117L28.7942 12.1539L40.6024 32.4961C37.6597 32.9734 33.8229 33.3774 29.0177 33.4141V37.2695C36.8029 37.1961 42.2787 36.2781 45.7057 35.3602L43.6569 39.8031L42.7629 41.7492L42.8002 41.7859C42.1669 42.8875 41.0494 43.6586 39.7457 43.8055V46.4125C41.7572 46.2656 43.5079 45.2742 44.6254 43.7688C45.8547 45.3844 47.7544 46.4492 49.9522 46.4492C53.6027 46.4492 56.6199 43.475 56.6199 39.8766H54.0124Z" fill="white"/>
<path d="M35.2756 39.8766H32.6681C32.6681 42.0797 30.8429 43.8422 28.6451 43.8422C26.4474 43.8422 24.5849 42.0797 24.5849 39.8766H21.9774C21.9774 41.9328 20.4129 43.5852 18.4014 43.8055V46.4125C20.4129 46.2656 22.1636 45.2742 23.2811 43.7688C24.5104 45.3844 26.4101 46.4492 28.6079 46.4492C30.8056 46.4492 32.7426 45.3844 33.9346 43.7688C35.0521 45.2742 36.8029 46.3024 38.8144 46.4125V43.8055C36.8401 43.6219 35.2756 41.9328 35.2756 39.8766Z" fill="white"/>
<path d="M39.783 5.43439H27.118L11.9945 31.6516C9.4615 30.9906 2.682 27.4656 2.682 27.4656L10.728 40.9047L10.132 41.9328C9.42425 43.1078 8.1205 43.9156 6.66775 43.9156C4.43275 43.9156 2.64475 42.1164 2.64475 39.95H0C0 43.5485 2.98 46.5227 6.66775 46.5227C9.089 46.5227 11.1377 45.2742 12.3297 43.4016C13.4472 45.1641 15.3097 46.3758 17.5447 46.5227V43.9156C16.2037 43.7688 15.0862 42.9609 14.453 41.8227L14.4902 41.7859L13.5217 39.9133L11.2495 35.5438C14.751 36.425 20.264 37.343 28.0865 37.3797V33.4875C23.0577 33.4875 19.072 33.0836 16.0175 32.5695L26.1495 15.0547L29.3902 9.36329H36.4305H39.7457L38.4792 7.4172L39.783 5.43439Z" fill="white"/>
</svg>
