<svg width="60" height="60" viewBox="0 0 60 60" fill="none" xmlns="http://www.w3.org/2000/svg">
<path d="M39.8958 28.8271L27.437 19.7705C26.9797 19.439 26.3728 19.3891 25.8716 19.6467C25.3665 19.9022 25.051 20.4214 25.051 20.9824V39.0896C25.051 39.6567 25.3665 40.1738 25.8716 40.4293C26.0853 40.5372 26.3189 40.5911 26.5545 40.5911C26.8619 40.5911 27.1734 40.4932 27.437 40.2996L39.8958 31.2509C40.2891 30.9614 40.5187 30.5142 40.5187 30.039C40.5207 29.5558 40.2851 29.1106 39.8958 28.8271Z" fill="white"/>
<path d="M30.001 0.00488281C13.4292 0.00488281 0 13.4341 0 30.0059C0 46.5717 13.4292 59.9969 30.001 59.9969C46.5688 59.9969 60 46.5697 60 30.0059C60.002 13.4341 46.5688 0.00488281 30.001 0.00488281ZM30.001 54.9914C16.2005 54.9914 5.01148 43.8084 5.01148 30.0059C5.01148 16.2093 16.2005 5.01237 30.001 5.01237C43.7995 5.01237 54.9865 16.2073 54.9865 30.0059C54.9885 43.8084 43.7995 54.9914 30.001 54.9914Z" fill="white"/>
</svg>
