<svg width="69" height="38" fill="none" xmlns="http://www.w3.org/2000/svg"><rect width="69" height="38" rx="4" fill="#F12835"/><path d="M22.296 10.836a.784.784 0 00-.317-.65c-.207-.165-.488-.247-.843-.247-.333 0-.6.08-.803.24a.75.75 0 00-.3.622h-2.05c0-.469.133-.889.399-1.26.27-.371.648-.66 1.136-.867a4.035 4.035 0 011.617-.317c1.016 0 1.805.213 2.368.64.566.425.85 1.02.85 1.786 0 .39-.116.748-.346 1.072a2.33 2.33 0 01-.944.762c.461.164.813.414 1.055.75.246.332.369.746.369 1.242 0 .766-.305 1.375-.914 1.829-.61.449-1.422.673-2.438.673-.94 0-1.722-.22-2.343-.662-.621-.445-.932-1.05-.932-1.816h2.063c0 .254.113.469.34.644.226.172.517.258.872.258.383 0 .694-.09.932-.27a.84.84 0 00.357-.703c0-.421-.101-.718-.304-.89-.203-.176-.5-.264-.89-.264h-1.096v-1.523h1.165c.665-.02.997-.37.997-1.05zm11.108 2.074c0 .832-.154 1.569-.462 2.21a3.434 3.434 0 01-1.319 1.482c-.566.343-1.213.515-1.94.515-.726 0-1.37-.166-1.933-.498a3.453 3.453 0 01-1.318-1.435c-.313-.621-.477-1.334-.492-2.14v-.48c0-.835.152-1.572.457-2.209a3.434 3.434 0 011.318-1.482c.574-.348 1.227-.521 1.957-.521.723 0 1.367.171 1.934.515a3.454 3.454 0 011.318 1.47c.316.634.477 1.36.48 2.18v.393zm-2.091-.357c0-.848-.143-1.49-.428-1.928-.281-.441-.686-.662-1.213-.662-1.031 0-1.576.773-1.635 2.32l-.005.627c0 .836.138 1.479.416 1.928.277.45.689.674 1.236.674.52 0 .92-.221 1.201-.662.281-.442.424-1.077.428-1.905v-.392zM42.076 17H40.03v-3.563H37V17h-2.056V8.469h2.057v3.386h3.029V8.47h2.045V17zm6.738-1.594h-2.819L45.503 17h-2.197l3.129-8.531h1.933L51.521 17h-2.21l-.497-1.594zm-2.326-1.588h1.834l-.92-2.959-.914 2.96zM16.073 26.91c0 .832-.154 1.569-.463 2.21a3.433 3.433 0 01-1.318 1.482c-.566.343-1.213.515-1.94.515-.726 0-1.37-.166-1.933-.498a3.454 3.454 0 01-1.318-1.435c-.313-.622-.477-1.334-.492-2.14v-.48c0-.835.152-1.572.457-2.209a3.434 3.434 0 011.318-1.482c.574-.348 1.226-.521 1.957-.521.723 0 1.367.171 1.934.515.566.344 1.005.834 1.318 1.47.316.634.477 1.36.48 2.18v.393zm-2.091-.357c0-.848-.143-1.49-.428-1.928-.281-.441-.686-.662-1.213-.662-1.031 0-1.576.773-1.635 2.32l-.006.627c0 .836.14 1.479.416 1.928.278.45.69.674 1.237.674.52 0 .92-.221 1.2-.662.282-.442.425-1.077.429-1.905v-.392zm9.825-2.496h-2.56V31H19.19v-6.943h-2.514v-1.588h7.131v1.588zm8.853 9.04h-1.845V31h-4.647v2.092h-1.904l-.147-3.674h.604c.316-.211.57-.572.762-1.084.195-.516.334-1.254.416-2.215l.263-3.65h5.807v6.949h.908l-.217 3.68zm-5.613-3.679h2.871v-5.361h-1.816l-.158 2.133c-.118 1.382-.416 2.458-.897 3.228zm9.076-4.014h1.06c.676 0 1.274.116 1.793.346.52.23.918.557 1.196.979.28.418.422.898.422 1.44 0 .84-.313 1.522-.938 2.046-.621.523-1.457.785-2.508.785H34.06v-8.531h2.063v2.935zM43.265 31h-2.05v-8.531h2.05V31zm-7.142-4.014v2.432h1.055c.418 0 .748-.117.99-.352.246-.234.369-.537.369-.908 0-.351-.121-.635-.363-.85-.243-.214-.578-.322-1.008-.322h-1.043zm12.175-1.681l1.395-2.836h2.35l-2.386 4.23L52.108 31h-2.373l-1.436-2.889L46.863 31h-2.368l2.444-4.3-2.38-4.231h2.345l1.394 2.836zm9.808 4.101h-2.818L54.796 31h-2.198l3.13-8.531h1.933L60.813 31h-2.209l-.498-1.594zm-2.326-1.588h1.834l-.92-2.959-.914 2.96z" fill="#fff"/></svg>