<svg width="87" height="38" fill="none" xmlns="http://www.w3.org/2000/svg"><path fill="#F12835" d="M0 0h87v38H0z"/><path d="M31.296 10.836a.784.784 0 00-.317-.65c-.207-.165-.488-.247-.843-.247-.333 0-.6.08-.803.24a.75.75 0 00-.3.622h-2.05c0-.469.133-.889.399-1.26.27-.371.648-.66 1.136-.867a4.035 4.035 0 011.617-.317c1.016 0 1.805.213 2.368.64.566.425.85 1.02.85 1.786 0 .39-.116.748-.346 1.072a2.33 2.33 0 01-.944.762c.461.164.813.414 1.055.75.246.332.369.746.369 1.242 0 .766-.305 1.375-.914 1.829-.61.449-1.422.673-2.438.673-.94 0-1.722-.22-2.343-.662-.621-.445-.932-1.05-.932-1.816h2.063c0 .254.113.469.34.644.226.172.517.258.872.258.383 0 .694-.09.932-.27a.84.84 0 00.357-.703c0-.421-.101-.718-.304-.89-.203-.176-.5-.264-.89-.264h-1.096v-1.523h1.165c.665-.02.997-.37.997-1.05zm11.108 2.074c0 .832-.154 1.569-.462 2.21a3.434 3.434 0 01-1.319 1.482c-.566.343-1.213.515-1.94.515-.726 0-1.37-.166-1.933-.498a3.453 3.453 0 01-1.318-1.435c-.313-.621-.477-1.334-.492-2.14v-.48c0-.835.152-1.572.457-2.209a3.434 3.434 0 011.318-1.482c.574-.348 1.227-.521 1.957-.521.723 0 1.367.171 1.934.515a3.454 3.454 0 011.318 1.47c.316.634.477 1.36.48 2.18v.393zm-2.091-.357c0-.848-.143-1.49-.428-1.928-.281-.441-.685-.662-1.213-.662-1.031 0-1.576.773-1.635 2.32l-.005.627c0 .836.138 1.479.416 1.928.277.45.689.674 1.236.674.52 0 .92-.221 1.201-.662.281-.442.424-1.077.428-1.905v-.392zM51.076 17H49.03v-3.563H46V17h-2.056V8.469h2.057v3.386h3.029V8.47h2.045V17zm6.738-1.594h-2.819L54.503 17h-2.197l3.129-8.531h1.933L60.521 17h-2.21l-.497-1.594zm-2.326-1.588h1.834l-.92-2.959-.914 2.96zM21.248 31H19.19v-6.943h-3.065V31H14.07v-8.531h7.177V31zm6.767-8.531h2.056V31h-2.056v-5.379L24.95 31h-2.056v-8.531h2.056v5.384l3.065-5.384zm6.814 5.156h-.973V31h-2.057v-8.531h2.057v3.299h.791l1.64-3.3h2.49l-2.343 3.938L39.071 31h-2.432l-1.81-3.375zM47.19 31h-2.044v-3.563h-3.03V31H40.06v-8.531h2.056v3.386h3.03V22.47h2.044V31zm6.79-8.531h2.058V31h-2.057v-5.379L50.917 31h-2.056v-8.531h2.056v5.384l3.065-5.384zm6.815 5.156h-.973V31h-2.056v-8.531h2.056v3.299h.791l1.64-3.3h2.491L62.4 26.406 65.038 31h-2.431l-1.811-3.375zm10.078 1.781h-2.819L67.563 31h-2.197l3.129-8.531h1.933L73.581 31h-2.21l-.497-1.594zm-2.327-1.588h1.834l-.92-2.959-.914 2.96z" fill="#fff"/></svg>