<svg width="66" height="25" fill="none" xmlns="http://www.w3.org/2000/svg"><rect x=".5" y=".5" width="64.278" height="24" rx="2.5" fill="#E9BEAF" stroke="#000"/><path d="M12.041 7.904l1.905 5.935 1.898-5.935h2.707v8.53H16.49v-1.991l.199-4.079-2.063 6.07h-1.359l-2.068-6.075.199 4.084v1.992H9.34V7.904h2.701zm12.894 6.937h-2.819l-.492 1.594h-2.197l3.129-8.531h1.933l3.153 8.53h-2.21l-.497-1.593zm-2.326-1.588h1.834l-.92-2.959-.914 2.96zm7.836.287v2.895H28.39V7.904h3.404c.652 0 1.229.12 1.729.363.504.238.892.58 1.166 1.025.277.442.416.944.416 1.506 0 .832-.3 1.498-.897 1.998-.594.496-1.41.744-2.45.744h-1.312zm0-1.588h1.348c.398 0 .701-.1.908-.299.211-.199.317-.48.317-.843 0-.399-.108-.717-.323-.955-.214-.239-.507-.36-.878-.364h-1.372v2.461zm8.898 1.108h-.973v3.375h-2.056V7.904h2.056v3.298h.791l1.64-3.298h2.491l-2.344 3.937 2.637 4.594h-2.432l-1.81-3.375zm10.163-.24H46.27v2.033h3.82v1.582h-5.876V7.904h5.888V9.49H46.27v1.8h3.235v1.528zm8.358-3.329h-2.56v6.944h-2.057V9.49h-2.514V7.904h7.131V9.49z" fill="#000"/></svg>