<svg width="87" height="25" fill="none" xmlns="http://www.w3.org/2000/svg"><path fill="#fff" stroke="#000" d="M.5.5h86v24H.5z"/><path d="M21.346 8.469l1.904 5.935 1.898-5.935h2.707V17h-2.062v-1.992l.2-4.078L23.93 17h-1.36l-2.068-6.076.2 4.084V17h-2.058V8.469h2.702zm12.893 6.937h-2.818L30.929 17H28.73l3.13-8.531h1.933L36.946 17h-2.209l-.498-1.594zm-2.326-1.588h1.834l-.92-2.959-.914 2.96zm7.837.287V17h-2.057V8.469h3.404c.653 0 1.229.12 1.729.363.504.238.892.58 1.166 1.025.277.442.416.944.416 1.506 0 .832-.299 1.498-.897 1.998-.593.496-1.41.744-2.449.744H39.75zm0-1.587h1.347c.399 0 .702-.1.909-.3.21-.198.316-.48.316-.843 0-.398-.107-.717-.322-.955-.215-.238-.508-.36-.88-.363h-1.37v2.46zm8.897 1.107h-.972V17h-2.057V8.469h2.056v3.299h.791l1.641-3.3h2.49l-2.343 3.938L52.889 17h-2.431l-1.81-3.375zm10.163-.24h-3.234v2.033h3.82V17h-5.877V8.469h5.889v1.588h-3.832v1.798h3.234v1.53zm8.358-3.328h-2.56V17H62.55v-6.943h-2.514V8.469h7.131v1.588z" fill="#000"/></svg>