<svg width="112" height="38" fill="none" xmlns="http://www.w3.org/2000/svg"><path fill="#FF8A00" d="M0 0h112v38H0z"/><path d="M18.743 10.057h-2.56V17h-2.057v-6.943h-2.514V8.469h7.13v1.588zm6.644 3.328h-3.235v2.033h3.82V17h-5.876V8.469h5.889v1.588h-3.832v1.798h3.234v1.53zm6.75 2.021h-2.819L28.826 17h-2.197l3.128-8.531h1.934L34.843 17h-2.209l-.498-1.594zm-2.327-1.588h1.834l-.92-2.959-.914 2.96zm12.134-3.761h-2.56V17h-2.057v-6.943h-2.513V8.469h7.13v1.588zm3.41 4.048V17h-2.056V8.469h3.404c.652 0 1.228.12 1.728.363.504.238.893.58 1.166 1.025.278.442.416.944.416 1.506 0 .832-.298 1.498-.896 1.998-.594.496-1.41.744-2.45.744h-1.312zm0-1.587h1.348c.398 0 .701-.1.908-.3.211-.198.316-.48.316-.843 0-.398-.107-.717-.322-.955-.215-.238-.508-.36-.879-.363h-1.37v2.46zm10.043 2.888h-2.819L52.086 17H49.89l3.129-8.531h1.933L58.104 17h-2.21l-.497-1.594zm-2.326-1.588h1.834l-.92-2.959-.914 2.96zm13.423-5.35V17h-2.057v-6.943h-1.916l-.14 2.865c-.059.988-.196 1.777-.41 2.367-.215.59-.522 1.022-.92 1.295-.395.27-.934.408-1.618.416h-.55v-1.582l.287-.03c.41-.058.707-.308.89-.75.184-.445.303-1.193.358-2.243l.146-3.926h5.93zm3.832 2.936h1.06c.676 0 1.273.116 1.793.346.52.23.918.557 1.195.979.282.418.422.898.422 1.44 0 .84-.312 1.522-.937 2.046-.621.523-1.457.785-2.508.785h-3.088V8.469h2.063v2.935zm0 1.582v2.432h1.054c.418 0 .748-.117.99-.352.246-.234.37-.537.37-.908 0-.351-.122-.635-.364-.85-.242-.214-.578-.322-1.008-.322h-1.042zM83.345 17H81.3v-3.563h-3.03V17h-2.056V8.469h2.056v3.386h3.03V8.47h2.044V17zm6.737-1.594h-2.818L86.772 17h-2.198l3.13-8.531h1.933L92.789 17H90.58l-.498-1.594zm-2.326-1.588h1.834l-.92-2.959-.914 2.96zM97.57 17v-2.994h-1.183L94.945 17h-2.232l1.752-3.691c-.762-.496-1.143-1.225-1.143-2.186 0-.844.277-1.496.832-1.957.555-.465 1.354-.697 2.397-.697h3.082V17H97.57zm-2.197-5.695c0 .433.088.748.264.943.175.195.47.293.884.293h1.05v-2.484h-1.038c-.41 0-.707.107-.89.322-.18.21-.27.52-.27.926zM26.629 31h-2.057v-6.943h-3.064V31H19.45v-8.531h7.178V31zm8.94-8.531V31h-2.056v-6.943h-1.916l-.14 2.865c-.06.988-.196 1.777-.41 2.367-.216.59-.522 1.021-.92 1.295-.395.27-.934.408-1.618.416h-.55v-1.582l.286-.03c.41-.058.707-.308.89-.75.184-.445.304-1.193.358-2.244l.147-3.925h5.93zm8.988 4.441c0 .832-.154 1.569-.463 2.21a3.434 3.434 0 01-1.318 1.482c-.566.343-1.213.515-1.94.515-.726 0-1.37-.166-1.933-.498a3.453 3.453 0 01-1.318-1.435c-.313-.622-.477-1.334-.492-2.14v-.48c0-.835.152-1.572.456-2.209a3.434 3.434 0 011.319-1.482c.574-.348 1.226-.521 1.957-.521.723 0 1.367.171 1.933.515.567.344 1.006.834 1.319 1.47.316.634.476 1.36.48 2.18v.393zm-2.092-.357c0-.848-.142-1.49-.427-1.928-.281-.441-.686-.662-1.213-.662-1.031 0-1.576.773-1.635 2.32l-.006.627c0 .836.139 1.479.416 1.928.278.45.69.674 1.237.674.52 0 .92-.221 1.2-.662.282-.442.425-1.077.428-1.905v-.392zm5.648-4.084v6.949h2.122v-6.95h2.056v6.95h2.098v-6.95h2.045v7.014h1.265l-.117 3.569H55.72V31h-9.662v-8.531h2.056zm15.967 6.937h-2.82L60.77 31h-2.197l3.129-8.531h1.934L66.787 31h-2.21l-.497-1.594zm-2.326-1.588h1.834l-.92-2.959-.914 2.96zm14.238 5.28h-1.846V31h-4.647v2.092h-1.904l-.147-3.674h.604c.316-.211.57-.572.762-1.084.195-.516.334-1.254.416-2.215l.263-3.65H75.3v6.949h.908l-.216 3.68zm-5.614-3.68h2.871v-5.361h-1.816l-.158 2.133c-.118 1.382-.416 2.458-.897 3.228zm10.037-1.793h-.973V31h-2.056v-8.531h2.056v3.299h.791l1.64-3.3h2.491l-2.344 3.938L84.657 31h-2.432l-1.81-3.375zm10.078 1.781h-2.819L87.182 31h-2.197l3.129-8.531h1.933L93.2 31h-2.21l-.497-1.594zm-2.327-1.588H90l-.92-2.959-.914 2.96z" fill="#fff"/></svg>