<svg width="69" height="38" fill="none" xmlns="http://www.w3.org/2000/svg"><rect width="69" height="38" rx="4" fill="#FDF151"/><path d="M15.3 17h-2.045v-3.563h-3.03V17H8.17V8.469h2.057v3.386h3.03V8.47H15.3V17zm6.79-8.531h2.057V17h-2.056v-5.379L19.025 17H16.97V8.469h2.056v5.385l3.064-5.385zm11.666 5.197h-1.043V17h-2.045v-3.334h-1.06L27.967 17h-2.555l2.573-4.658-2.497-3.873h2.596l1.746 3.346h.838V8.469h2.045v3.346h.832l1.67-3.346h2.59l-2.432 3.861 2.52 4.67h-2.567l-1.57-3.334zM46.12 17h-2.045v-3.563h-3.03V17h-2.056V8.469h2.057v3.386h3.029V8.47h2.045V17zm5.46 0v-2.994h-1.183L48.954 17h-2.232l1.752-3.691c-.762-.496-1.143-1.225-1.143-2.186 0-.844.278-1.496.832-1.957.555-.465 1.354-.697 2.397-.697h3.082V17h-2.063zm-2.197-5.695c0 .433.088.748.264.943.176.195.47.293.885.293h1.048v-2.484h-1.037c-.41 0-.707.107-.89.322-.18.21-.27.52-.27.926zM58.927 17v-2.994h-1.184L56.302 17h-2.233l1.752-3.691c-.762-.496-1.142-1.225-1.142-2.186 0-.844.277-1.496.831-1.957.555-.465 1.354-.697 2.397-.697h3.082V17h-2.062zm-2.198-5.695c0 .433.088.748.264.943.176.195.47.293.885.293h1.049v-2.484h-1.038c-.41 0-.707.107-.89.322-.18.21-.27.52-.27.926zM20.802 28.11a3.132 3.132 0 01-.48 1.576 2.904 2.904 0 01-1.237 1.055c-.527.25-1.13.375-1.81.375-1.122 0-2.004-.365-2.65-1.096-.644-.73-.966-1.761-.966-3.093v-.422c0-.836.145-1.567.434-2.192.293-.628.713-1.113 1.26-1.453.546-.343 1.18-.515 1.898-.515 1.035 0 1.867.273 2.496.82.629.543.986 1.293 1.072 2.25h-2.05c-.016-.52-.147-.893-.393-1.12-.246-.226-.621-.339-1.125-.339-.512 0-.887.191-1.125.574-.238.383-.363.994-.375 1.834v.604c0 .91.113 1.56.34 1.95.23.392.625.587 1.183.587.473 0 .834-.111 1.084-.334.25-.223.383-.576.399-1.06h2.045zm1.312-5.642h2.045v6.949h3.064v-6.95h2.063v6.968h1.306l-.117 3.62h-1.94V31h-6.421v-8.531zm15.17 4.916h-3.235v2.033h3.82V31h-5.877v-8.531h5.889v1.588h-3.832v1.799h3.234v1.529zM46.317 31h-2.045v-3.563h-3.03V31h-2.056v-8.531h2.057v3.386h3.029V22.47h2.045V31zm6.738-1.594h-2.819L49.745 31h-2.197l3.129-8.531h1.933L55.763 31h-2.21l-.497-1.594zm-2.326-1.588h1.834l-.92-2.959-.914 2.96z" fill="#000"/></svg>