<svg width="97" height="38" fill="none" xmlns="http://www.w3.org/2000/svg"><path fill="#FF8A00" d="M0 0h97v38H0z"/><path d="M21.8 17V8.469h3.065c1.097 0 1.931.2 2.502.603.574.403.861.987.861 1.752 0 .442-.102.819-.305 1.131-.203.313-.502.543-.896.691.445.118.787.336 1.025.657.239.32.358.71.358 1.172 0 .835-.266 1.465-.797 1.886-.528.418-1.31.631-2.35.639H21.8zm2.057-3.627v2.045h1.348c.37 0 .656-.084.855-.252.2-.172.299-.412.299-.72 0-.712-.354-1.069-1.06-1.073h-1.442zm0-1.348h1.072c.45-.004.77-.085.961-.246.191-.16.287-.396.287-.709 0-.36-.103-.617-.31-.773-.207-.16-.541-.24-1.002-.24h-1.008v1.968zm11.46 1.36h-3.234v2.033h3.82V17h-5.877V8.469h5.889v1.588h-3.832v1.798h3.234v1.53zm3.96.72V17h-2.056V8.469h3.405c.652 0 1.228.12 1.728.363.504.238.893.58 1.166 1.025.277.442.416.944.416 1.506 0 .832-.299 1.498-.897 1.998-.593.496-1.41.744-2.449.744h-1.312zm0-1.587h1.349c.398 0 .7-.1.908-.3.21-.198.316-.48.316-.843 0-.398-.107-.717-.322-.955-.215-.238-.508-.36-.88-.363h-1.37v2.46zm9.117-1.213l1.395-2.836h2.35l-2.385 4.23L52.204 17H49.83l-1.435-2.889L46.959 17h-2.367l2.443-4.3-2.379-4.231H47l1.395 2.836zM60.489 17h-2.045v-3.563h-3.03V17h-2.056V8.469h2.057v3.386h3.029V8.47h2.045V17zm5.46 0v-2.994h-1.183L63.323 17h-2.232l1.752-3.691c-.762-.496-1.143-1.225-1.143-2.186 0-.844.278-1.496.832-1.957.555-.465 1.354-.697 2.397-.697h3.082V17h-2.063zm-2.197-5.695c0 .433.088.748.264.943.175.195.47.293.885.293h1.048v-2.484h-1.037c-.41 0-.707.107-.89.322-.18.21-.27.52-.27.926zM73.296 17v-2.994h-1.184L70.67 17h-2.233l1.752-3.691c-.762-.496-1.143-1.225-1.143-2.186 0-.844.278-1.496.832-1.957.555-.465 1.354-.697 2.397-.697h3.082V17h-2.063zm-2.198-5.695c0 .433.088.748.264.943.176.195.47.293.885.293h1.049v-2.484h-1.038c-.41 0-.707.107-.89.322-.18.21-.27.52-.27.926zM34.802 28.11a3.131 3.131 0 01-.48 1.576 2.903 2.903 0 01-1.237 1.055c-.527.25-1.13.375-1.81.375-1.122 0-2.005-.365-2.65-1.096-.644-.73-.966-1.761-.966-3.093v-.422c0-.836.145-1.567.434-2.192.293-.628.713-1.113 1.26-1.453.546-.343 1.18-.515 1.898-.515 1.035 0 1.867.273 2.496.82.629.543.986 1.293 1.072 2.25h-2.05c-.016-.52-.147-.893-.393-1.12-.246-.226-.621-.339-1.125-.339-.512 0-.887.191-1.125.574-.238.383-.363.994-.375 1.834v.604c0 .91.113 1.56.34 1.95.23.392.625.587 1.183.587.473 0 .834-.111 1.084-.334.25-.223.383-.576.399-1.06h2.045zm1.312-5.642h2.045v6.949h3.064v-6.95h2.063v6.968h1.306l-.117 3.62h-1.94V31h-6.421v-8.531zm15.17 4.916h-3.235v2.033h3.82V31h-5.877v-8.531h5.889v1.588h-3.832v1.799h3.234v1.529zM60.317 31h-2.045v-3.563h-3.03V31h-2.056v-8.531h2.057v3.386h3.029V22.47h2.045V31zm6.738-1.594h-2.819L63.745 31h-2.197l3.129-8.531h1.933L69.763 31h-2.21l-.497-1.594zm-2.326-1.588h1.834l-.92-2.959-.915 2.96z" fill="#fff"/></svg>