<svg width="40" height="40" fill="none" xmlns="http://www.w3.org/2000/svg"><path d="M20 0C11.727 0 5 6.727 5 15c0 10.398 13.54 24.055 14.117 24.633a1.249 1.249 0 001.766 0C21.46 39.055 35 25.398 35 15c0-8.273-6.727-15-15-15z" fill="#000"/><path d="M16.906 10.79l1.602 6.007 1.398-6.007h2.602l-2.54 9.343H17.43l-1.602-5.804-1.601 5.804h-2.54L9.149 10.79h2.602l1.398 6.007 1.602-6.007h2.156zM30.125 20c-1.984.18-3.633.266-4.938.266-.875 0-1.515-.203-1.921-.618-.407-.406-.618-1.046-.618-1.921v-4.274c0-.937.211-1.61.633-2.039.422-.422 1.102-.633 2.04-.633h4.804v1.875h-4.273c-.532 0-.805.266-.805.805v4.273a.66.66 0 00.18.485.63.63 0 00.46.18c.188 0 .391 0 .618-.008.218-.008.453-.008.695-.024l.727-.023c.242-.008.562-.024.945-.055.383-.031.867-.055 1.445-.094V20h.008z" fill="#fff"/></svg>