<svg width="37" height="37" fill="none" xmlns="http://www.w3.org/2000/svg"><path d="M2.891 21.06a3.893 3.893 0 01-.063-5.593l12.64-12.639a4.11 4.11 0 015.719-.064l12.92 12.352a3.893 3.893 0 01.062 5.592l-12.638 12.64a4.11 4.11 0 01-5.72.063L2.89 21.06z" fill="#C4AB6A"/><path d="M16.648 19.082l.897-4.903h1.87l-1.66 7.82H15.8l-1.048-4.458-1.026 4.458h-1.95l-1.664-7.82h1.874l.897 4.903 1.074-4.903h1.6l1.091 4.903zm9.94.269a2.87 2.87 0 01-.441 1.445 2.66 2.66 0 01-1.133.966c-.484.23-1.037.344-1.66.344-1.028 0-1.837-.335-2.428-1.004-.59-.67-.886-1.615-.886-2.836v-.387c0-.766.133-1.436.398-2.009a3.031 3.031 0 011.154-1.332c.502-.315 1.082-.472 1.74-.472.95 0 1.712.25 2.289.752.576.497.904 1.185.983 2.062h-1.88c-.015-.476-.135-.818-.36-1.026-.226-.207-.57-.311-1.032-.311-.469 0-.812.175-1.03.526-.22.351-.334.912-.345 1.681v.554c0 .834.104 1.43.312 1.788.211.358.573.537 1.085.537.433 0 .764-.102.994-.306.229-.204.35-.528.365-.972h1.874z" fill="#000"/></svg>