<svg width="87" height="38" viewBox="0 0 87 38" fill="none" xmlns="http://www.w3.org/2000/svg">
<rect width="87" height="38" fill="#F12835"/>
<path d="M31.2956 10.8359C31.2956 10.5664 31.1902 10.3496 30.9792 10.1855C30.7722 10.0215 30.4909 9.93945 30.1355 9.93945C29.8034 9.93945 29.5359 10.0195 29.3327 10.1797C29.1335 10.3359 29.0339 10.543 29.0339 10.8008H26.9831C26.9831 10.332 27.1159 9.91211 27.3816 9.54102C27.6511 9.16992 28.03 8.88086 28.5183 8.67383C29.0066 8.46289 29.5456 8.35742 30.1355 8.35742C31.1511 8.35742 31.9402 8.57031 32.5027 8.99609C33.0691 9.42188 33.3523 10.0176 33.3523 10.7832C33.3523 11.1738 33.237 11.5312 33.0066 11.8555C32.78 12.1758 32.4655 12.4297 32.0632 12.6172C32.5241 12.7812 32.8757 13.0312 33.1179 13.3672C33.364 13.6992 33.487 14.1133 33.487 14.6094C33.487 15.375 33.1823 15.9844 32.573 16.4375C31.9636 16.8867 31.1511 17.1113 30.1355 17.1113C29.1941 17.1113 28.4128 16.8906 27.7917 16.4492C27.1706 16.0039 26.8601 15.3984 26.8601 14.6328H28.9226C28.9226 14.8867 29.0359 15.1016 29.2624 15.2773C29.489 15.4492 29.78 15.5352 30.1355 15.5352C30.5183 15.5352 30.8288 15.4453 31.0671 15.2656C31.3054 15.0859 31.4245 14.8516 31.4245 14.5625C31.4245 14.1406 31.323 13.8438 31.1198 13.6719C30.9167 13.4961 30.6198 13.4082 30.2292 13.4082H29.1335V11.8848H30.2995C30.9636 11.8652 31.2956 11.5156 31.2956 10.8359ZM42.4045 12.9102C42.4045 13.7422 42.2502 14.4785 41.9416 15.1191C41.633 15.7598 41.1936 16.2539 40.6233 16.6016C40.0569 16.9453 39.4104 17.1172 38.6838 17.1172C37.9573 17.1172 37.3127 16.9512 36.7502 16.6191C36.1877 16.2832 35.7483 15.8047 35.4319 15.1836C35.1194 14.5625 34.9553 13.8496 34.9397 13.0449V12.5645C34.9397 11.7285 35.092 10.9922 35.3967 10.3555C35.7053 9.71484 36.1448 9.2207 36.7151 8.87305C37.2893 8.52539 37.9416 8.35156 38.6721 8.35156C39.3948 8.35156 40.0393 8.52344 40.6057 8.86719C41.1721 9.21094 41.6116 9.70117 41.9241 10.3379C42.2405 10.9707 42.4006 11.6973 42.4045 12.5176V12.9102ZM40.3127 12.5527C40.3127 11.7051 40.1702 11.0625 39.885 10.625C39.6038 10.1836 39.1995 9.96289 38.6721 9.96289C37.6409 9.96289 37.0959 10.7363 37.0373 12.2832L37.0315 12.9102C37.0315 13.7461 37.1702 14.3887 37.4475 14.8379C37.7248 15.2871 38.137 15.5117 38.6838 15.5117C39.2034 15.5117 39.6038 15.291 39.885 14.8496C40.1663 14.4082 40.3088 13.7734 40.3127 12.9453V12.5527ZM51.0759 17H49.031V13.4375H46.0017V17H43.9451V8.46875H46.0017V11.8555H49.031V8.46875H51.0759V17ZM57.8138 15.4062H54.9954L54.5032 17H52.3059L55.4348 8.46875H57.3684L60.5208 17H58.3118L57.8138 15.4062ZM55.4876 13.8184H57.3216L56.4016 10.8594L55.4876 13.8184ZM25.0734 26.9102C25.0734 27.7422 24.9191 28.4785 24.6105 29.1191C24.302 29.7598 23.8625 30.2539 23.2922 30.6016C22.7258 30.9453 22.0793 31.1172 21.3527 31.1172C20.6262 31.1172 19.9816 30.9512 19.4191 30.6191C18.8566 30.2832 18.4172 29.8047 18.1008 29.1836C17.7883 28.5625 17.6242 27.8496 17.6086 27.0449V26.5645C17.6086 25.7285 17.7609 24.9922 18.0656 24.3555C18.3742 23.7148 18.8137 23.2207 19.384 22.873C19.9582 22.5254 20.6105 22.3516 21.341 22.3516C22.0637 22.3516 22.7082 22.5234 23.2746 22.8672C23.841 23.2109 24.2805 23.7012 24.593 24.3379C24.9094 24.9707 25.0695 25.6973 25.0734 26.5176V26.9102ZM22.9816 26.5527C22.9816 25.7051 22.8391 25.0625 22.5539 24.625C22.2727 24.1836 21.8684 23.9629 21.341 23.9629C20.3098 23.9629 19.7648 24.7363 19.7062 26.2832L19.7004 26.9102C19.7004 27.7461 19.8391 28.3887 20.1164 28.8379C20.3937 29.2871 20.8059 29.5117 21.3527 29.5117C21.8723 29.5117 22.2727 29.291 22.5539 28.8496C22.8352 28.4082 22.9777 27.7734 22.9816 26.9453V26.5527ZM32.8073 24.0566H30.2468V31H28.1902V24.0566H25.6765V22.4688H32.8073V24.0566ZM41.6604 33.0977H39.8147V31H35.1682V33.0918H33.2639L33.1174 29.418H33.7209C34.0373 29.207 34.2912 28.8457 34.4827 28.334C34.678 27.8184 34.8166 27.0801 34.8987 26.1191L35.1623 22.4688H40.969V29.418H41.8772L41.6604 33.0977ZM36.0471 29.418H38.9182V24.0566H37.1018L36.9436 26.1895C36.8264 27.5723 36.5276 28.6484 36.0471 29.418ZM45.1228 25.4043H46.1834C46.8591 25.4043 47.4568 25.5195 47.9763 25.75C48.4959 25.9805 48.8943 26.3066 49.1716 26.7285C49.4529 27.1465 49.5935 27.627 49.5935 28.1699C49.5935 29.0098 49.281 29.6914 48.656 30.2148C48.0349 30.7383 47.199 31 46.1482 31H43.0603V22.4688H45.1228V25.4043ZM52.2654 31H50.2146V22.4688H52.2654V31ZM45.1228 26.9863V29.418H46.1775C46.5955 29.418 46.9255 29.3008 47.1677 29.0664C47.4138 28.832 47.5369 28.5293 47.5369 28.1582C47.5369 27.8066 47.4158 27.5234 47.1736 27.3086C46.9314 27.0938 46.5955 26.9863 46.1658 26.9863H45.1228ZM57.2981 25.3047L58.6927 22.4688H61.0423L58.6575 26.6992L61.1067 31H58.7337L57.2981 28.1113L55.8626 31H53.4954L55.9387 26.6992L53.5598 22.4688H55.9036L57.2981 25.3047ZM67.1063 29.4062H64.2879L63.7957 31H61.5984L64.7273 22.4688H66.6609L69.8133 31H67.6043L67.1063 29.4062ZM64.7801 27.8184H66.6141L65.6941 24.8594L64.7801 27.8184Z" fill="white"/>
</svg>
