<svg width="69" height="38" viewBox="0 0 69 38" fill="none" xmlns="http://www.w3.org/2000/svg">
<rect width="69" height="38" rx="4" fill="#F12835"/>
<path d="M22.2956 10.8359C22.2956 10.5664 22.1902 10.3496 21.9792 10.1855C21.7722 10.0215 21.4909 9.93945 21.1355 9.93945C20.8034 9.93945 20.5359 10.0195 20.3327 10.1797C20.1335 10.3359 20.0339 10.543 20.0339 10.8008H17.9831C17.9831 10.332 18.1159 9.91211 18.3816 9.54102C18.6511 9.16992 19.03 8.88086 19.5183 8.67383C20.0066 8.46289 20.5456 8.35742 21.1355 8.35742C22.1511 8.35742 22.9402 8.57031 23.5027 8.99609C24.0691 9.42188 24.3523 10.0176 24.3523 10.7832C24.3523 11.1738 24.237 11.5312 24.0066 11.8555C23.78 12.1758 23.4655 12.4297 23.0632 12.6172C23.5241 12.7812 23.8757 13.0312 24.1179 13.3672C24.364 13.6992 24.487 14.1133 24.487 14.6094C24.487 15.375 24.1823 15.9844 23.573 16.4375C22.9636 16.8867 22.1511 17.1113 21.1355 17.1113C20.1941 17.1113 19.4128 16.8906 18.7917 16.4492C18.1706 16.0039 17.8601 15.3984 17.8601 14.6328H19.9226C19.9226 14.8867 20.0359 15.1016 20.2624 15.2773C20.489 15.4492 20.78 15.5352 21.1355 15.5352C21.5183 15.5352 21.8288 15.4453 22.0671 15.2656C22.3054 15.0859 22.4245 14.8516 22.4245 14.5625C22.4245 14.1406 22.323 13.8438 22.1198 13.6719C21.9167 13.4961 21.6198 13.4082 21.2292 13.4082H20.1335V11.8848H21.2995C21.9636 11.8652 22.2956 11.5156 22.2956 10.8359ZM33.4045 12.9102C33.4045 13.7422 33.2502 14.4785 32.9416 15.1191C32.633 15.7598 32.1936 16.2539 31.6233 16.6016C31.0569 16.9453 30.4104 17.1172 29.6838 17.1172C28.9573 17.1172 28.3127 16.9512 27.7502 16.6191C27.1877 16.2832 26.7483 15.8047 26.4319 15.1836C26.1194 14.5625 25.9553 13.8496 25.9397 13.0449V12.5645C25.9397 11.7285 26.092 10.9922 26.3967 10.3555C26.7053 9.71484 27.1448 9.2207 27.7151 8.87305C28.2893 8.52539 28.9416 8.35156 29.6721 8.35156C30.3948 8.35156 31.0393 8.52344 31.6057 8.86719C32.1721 9.21094 32.6116 9.70117 32.9241 10.3379C33.2405 10.9707 33.4006 11.6973 33.4045 12.5176V12.9102ZM31.3127 12.5527C31.3127 11.7051 31.1702 11.0625 30.885 10.625C30.6038 10.1836 30.1995 9.96289 29.6721 9.96289C28.6409 9.96289 28.0959 10.7363 28.0373 12.2832L28.0315 12.9102C28.0315 13.7461 28.1702 14.3887 28.4475 14.8379C28.7248 15.2871 29.137 15.5117 29.6838 15.5117C30.2034 15.5117 30.6038 15.291 30.885 14.8496C31.1663 14.4082 31.3088 13.7734 31.3127 12.9453V12.5527ZM42.0759 17H40.031V13.4375H37.0017V17H34.9451V8.46875H37.0017V11.8555H40.031V8.46875H42.0759V17ZM48.8138 15.4062H45.9954L45.5032 17H43.3059L46.4348 8.46875H48.3684L51.5208 17H49.3118L48.8138 15.4062ZM46.4876 13.8184H48.3216L47.4016 10.8594L46.4876 13.8184ZM16.0734 26.9102C16.0734 27.7422 15.9191 28.4785 15.6105 29.1191C15.302 29.7598 14.8625 30.2539 14.2922 30.6016C13.7258 30.9453 13.0793 31.1172 12.3527 31.1172C11.6262 31.1172 10.9816 30.9512 10.4191 30.6191C9.85664 30.2832 9.41719 29.8047 9.10078 29.1836C8.78828 28.5625 8.62422 27.8496 8.60859 27.0449V26.5645C8.60859 25.7285 8.76094 24.9922 9.06562 24.3555C9.37422 23.7148 9.81367 23.2207 10.384 22.873C10.9582 22.5254 11.6105 22.3516 12.341 22.3516C13.0637 22.3516 13.7082 22.5234 14.2746 22.8672C14.841 23.2109 15.2805 23.7012 15.593 24.3379C15.9094 24.9707 16.0695 25.6973 16.0734 26.5176V26.9102ZM13.9816 26.5527C13.9816 25.7051 13.8391 25.0625 13.5539 24.625C13.2727 24.1836 12.8684 23.9629 12.341 23.9629C11.3098 23.9629 10.7648 24.7363 10.7062 26.2832L10.7004 26.9102C10.7004 27.7461 10.8391 28.3887 11.1164 28.8379C11.3937 29.2871 11.8059 29.5117 12.3527 29.5117C12.8723 29.5117 13.2727 29.291 13.5539 28.8496C13.8352 28.4082 13.9777 27.7734 13.9816 26.9453V26.5527ZM23.8073 24.0566H21.2468V31H19.1902V24.0566H16.6765V22.4688H23.8073V24.0566ZM32.6604 33.0977H30.8147V31H26.1682V33.0918H24.2639L24.1174 29.418H24.7209C25.0373 29.207 25.2912 28.8457 25.4827 28.334C25.678 27.8184 25.8166 27.0801 25.8987 26.1191L26.1623 22.4688H31.969V29.418H32.8772L32.6604 33.0977ZM27.0471 29.418H29.9182V24.0566H28.1018L27.9436 26.1895C27.8264 27.5723 27.5276 28.6484 27.0471 29.418ZM36.1228 25.4043H37.1834C37.8591 25.4043 38.4568 25.5195 38.9763 25.75C39.4959 25.9805 39.8943 26.3066 40.1716 26.7285C40.4529 27.1465 40.5935 27.627 40.5935 28.1699C40.5935 29.0098 40.281 29.6914 39.656 30.2148C39.0349 30.7383 38.199 31 37.1482 31H34.0603V22.4688H36.1228V25.4043ZM43.2654 31H41.2146V22.4688H43.2654V31ZM36.1228 26.9863V29.418H37.1775C37.5955 29.418 37.9255 29.3008 38.1677 29.0664C38.4138 28.832 38.5369 28.5293 38.5369 28.1582C38.5369 27.8066 38.4158 27.5234 38.1736 27.3086C37.9314 27.0938 37.5955 26.9863 37.1658 26.9863H36.1228ZM48.2981 25.3047L49.6927 22.4688H52.0423L49.6575 26.6992L52.1067 31H49.7337L48.2981 28.1113L46.8626 31H44.4954L46.9387 26.6992L44.5598 22.4688H46.9036L48.2981 25.3047ZM58.1063 29.4062H55.2879L54.7957 31H52.5984L55.7273 22.4688H57.6609L60.8133 31H58.6043L58.1063 29.4062ZM55.7801 27.8184H57.6141L56.6941 24.8594L55.7801 27.8184Z" fill="white"/>
</svg>
