<svg width="87" height="38" viewBox="0 0 87 38" fill="none" xmlns="http://www.w3.org/2000/svg">
<rect width="87" height="38" fill="#F12835"/>
<path d="M31.2956 10.8359C31.2956 10.5664 31.1902 10.3496 30.9792 10.1855C30.7722 10.0215 30.4909 9.93945 30.1355 9.93945C29.8034 9.93945 29.5359 10.0195 29.3327 10.1797C29.1335 10.3359 29.0339 10.543 29.0339 10.8008H26.9831C26.9831 10.332 27.1159 9.91211 27.3816 9.54102C27.6511 9.16992 28.03 8.88086 28.5183 8.67383C29.0066 8.46289 29.5456 8.35742 30.1355 8.35742C31.1511 8.35742 31.9402 8.57031 32.5027 8.99609C33.0691 9.42188 33.3523 10.0176 33.3523 10.7832C33.3523 11.1738 33.237 11.5312 33.0066 11.8555C32.78 12.1758 32.4655 12.4297 32.0632 12.6172C32.5241 12.7812 32.8757 13.0312 33.1179 13.3672C33.364 13.6992 33.487 14.1133 33.487 14.6094C33.487 15.375 33.1823 15.9844 32.573 16.4375C31.9636 16.8867 31.1511 17.1113 30.1355 17.1113C29.1941 17.1113 28.4128 16.8906 27.7917 16.4492C27.1706 16.0039 26.8601 15.3984 26.8601 14.6328H28.9226C28.9226 14.8867 29.0359 15.1016 29.2624 15.2773C29.489 15.4492 29.78 15.5352 30.1355 15.5352C30.5183 15.5352 30.8288 15.4453 31.0671 15.2656C31.3054 15.0859 31.4245 14.8516 31.4245 14.5625C31.4245 14.1406 31.323 13.8438 31.1198 13.6719C30.9167 13.4961 30.6198 13.4082 30.2292 13.4082H29.1335V11.8848H30.2995C30.9636 11.8652 31.2956 11.5156 31.2956 10.8359ZM42.4045 12.9102C42.4045 13.7422 42.2502 14.4785 41.9416 15.1191C41.633 15.7598 41.1936 16.2539 40.6233 16.6016C40.0569 16.9453 39.4104 17.1172 38.6838 17.1172C37.9573 17.1172 37.3127 16.9512 36.7502 16.6191C36.1877 16.2832 35.7483 15.8047 35.4319 15.1836C35.1194 14.5625 34.9553 13.8496 34.9397 13.0449V12.5645C34.9397 11.7285 35.092 10.9922 35.3967 10.3555C35.7053 9.71484 36.1448 9.2207 36.7151 8.87305C37.2893 8.52539 37.9416 8.35156 38.6721 8.35156C39.3948 8.35156 40.0393 8.52344 40.6057 8.86719C41.1721 9.21094 41.6116 9.70117 41.9241 10.3379C42.2405 10.9707 42.4006 11.6973 42.4045 12.5176V12.9102ZM40.3127 12.5527C40.3127 11.7051 40.1702 11.0625 39.885 10.625C39.6038 10.1836 39.1995 9.96289 38.6721 9.96289C37.6409 9.96289 37.0959 10.7363 37.0373 12.2832L37.0315 12.9102C37.0315 13.7461 37.1702 14.3887 37.4475 14.8379C37.7248 15.2871 38.137 15.5117 38.6838 15.5117C39.2034 15.5117 39.6038 15.291 39.885 14.8496C40.1663 14.4082 40.3088 13.7734 40.3127 12.9453V12.5527ZM51.0759 17H49.031V13.4375H46.0017V17H43.9451V8.46875H46.0017V11.8555H49.031V8.46875H51.0759V17ZM57.8138 15.4062H54.9954L54.5032 17H52.3059L55.4348 8.46875H57.3684L60.5208 17H58.3118L57.8138 15.4062ZM55.4876 13.8184H57.3216L56.4016 10.8594L55.4876 13.8184ZM21.2475 31H19.1909V24.0566H16.1264V31H14.0698V22.4688H21.2475V31ZM28.0146 22.4688H30.0712V31H28.0146V25.6211L24.9502 31H22.8935V22.4688H24.9502V27.8535L28.0146 22.4688ZM34.8286 27.625H33.8559V31H31.7993V22.4688H33.8559V25.7676H34.647L36.2876 22.4688H38.7778L36.4341 26.4062L39.0708 31H36.6391L34.8286 27.625ZM47.1914 31H45.1465V27.4375H42.1172V31H40.0605V22.4688H42.1172V25.8555H45.1465V22.4688H47.1914V31ZM53.9819 22.4688H56.0386V31H53.9819V25.6211L50.9175 31H48.8609V22.4688H50.9175V27.8535L53.9819 22.4688ZM60.7959 27.625H59.8233V31H57.7666V22.4688H59.8233V25.7676H60.6143L62.2549 22.4688H64.7452L62.4014 26.4062L65.0381 31H62.6065L60.7959 27.625ZM70.8736 29.4062H68.0552L67.563 31H65.3658L68.4947 22.4688H70.4283L73.5806 31H71.3716L70.8736 29.4062ZM68.5474 27.8184H70.3814L69.4615 24.8594L68.5474 27.8184Z" fill="white"/>
</svg>
