<svg width="87" height="25" viewBox="0 0 87 25" fill="none" xmlns="http://www.w3.org/2000/svg">
<rect x="0.5" y="0.5" width="86" height="24" fill="white" stroke="black"/>
<path d="M21.3457 8.46875L23.25 14.4043L25.1484 8.46875H27.8555V17H25.793V15.0078L25.9922 10.9297L23.9297 17H22.5703L20.502 10.9238L20.7012 15.0078V17H18.6445V8.46875H21.3457ZM34.2391 15.4062H31.4208L30.9286 17H28.7313L31.8602 8.46875H33.7938L36.9462 17H34.7372L34.2391 15.4062ZM31.913 13.8184H33.747L32.827 10.8594L31.913 13.8184ZM39.7498 14.1055V17H37.6931V8.46875H41.0974C41.7498 8.46875 42.3259 8.58984 42.8259 8.83203C43.3298 9.07031 43.7185 9.41211 43.992 9.85742C44.2693 10.2988 44.408 10.8008 44.408 11.3633C44.408 12.1953 44.1091 12.8613 43.5115 13.3613C42.9177 13.8574 42.1013 14.1055 41.0623 14.1055H39.7498ZM39.7498 12.5176H41.0974C41.4959 12.5176 41.7986 12.418 42.0056 12.2188C42.2166 12.0195 42.322 11.7383 42.322 11.375C42.322 10.9766 42.2146 10.6582 41.9998 10.4199C41.7849 10.1816 41.492 10.0605 41.1209 10.0566H39.7498V12.5176ZM48.6471 13.625H47.6745V17H45.6178V8.46875H47.6745V11.7676H48.4655L50.1061 8.46875H52.5963L50.2526 12.4062L52.8893 17H50.4577L48.6471 13.625ZM58.8101 13.3848H55.5757V15.418H59.396V17H53.5191V8.46875H59.4077V10.0566H55.5757V11.8555H58.8101V13.3848ZM67.1684 10.0566H64.6078V17H62.5512V10.0566H60.0375V8.46875H67.1684V10.0566Z" fill="black"/>
</svg>
