<svg width="66" height="25" viewBox="0 0 66 25" fill="none" xmlns="http://www.w3.org/2000/svg">
<rect x="0.5" y="0.5" width="64.2778" height="24" rx="2.5" fill="#E9BEAF" stroke="black"/>
<path d="M12.0414 7.90353L13.9456 13.8391L15.8441 7.90353H18.5511V16.4348H16.4886V14.4426L16.6878 10.3645L14.6253 16.4348H13.266L11.1976 10.3586L11.3968 14.4426V16.4348H9.34018V7.90353H12.0414ZM24.9348 14.841H22.1164L21.6242 16.4348H19.427L22.5559 7.90353H24.4895L27.6418 16.4348H25.4328L24.9348 14.841ZM22.6086 13.2531H24.4426L23.5227 10.2942L22.6086 13.2531ZM30.4454 13.5403V16.4348H28.3888V7.90353H31.7931C32.4454 7.90353 33.0216 8.02463 33.5216 8.26682C34.0255 8.5051 34.4142 8.84689 34.6876 9.29221C34.9649 9.73361 35.1036 10.2356 35.1036 10.7981C35.1036 11.6301 34.8048 12.2961 34.2071 12.7961C33.6134 13.2922 32.797 13.5403 31.7579 13.5403H30.4454ZM30.4454 11.9524H31.7931C32.1915 11.9524 32.4942 11.8528 32.7013 11.6535C32.9122 11.4543 33.0177 11.1731 33.0177 10.8098C33.0177 10.4113 32.9103 10.093 32.6954 9.85471C32.4806 9.61642 32.1876 9.49533 31.8165 9.49142H30.4454V11.9524ZM39.3428 13.0598H38.3701V16.4348H36.3135V7.90353H38.3701V11.2024H39.1611L40.8017 7.90353H43.292L40.9482 11.841L43.5849 16.4348H41.1533L39.3428 13.0598ZM49.5057 12.8195H46.2714V14.8528H50.0917V16.4348H44.2147V7.90353H50.1034V9.49142H46.2714V11.2903H49.5057V12.8195ZM57.864 9.49142H55.3035V16.4348H53.2468V9.49142H50.7331V7.90353H57.864V9.49142Z" fill="black"/>
</svg>
