<svg width="69" height="38" viewBox="0 0 69 38" fill="none" xmlns="http://www.w3.org/2000/svg">
<rect width="69" height="38" rx="4" fill="#FDF151"/>
<path d="M7.80023 17V8.46875H10.8647C11.9623 8.46875 12.7963 8.66992 13.3666 9.07227C13.9409 9.47461 14.228 10.0586 14.228 10.8242C14.228 11.2656 14.1264 11.6426 13.9233 11.9551C13.7202 12.2676 13.4213 12.498 13.0268 12.6465C13.4721 12.7637 13.8139 12.9824 14.0522 13.3027C14.2905 13.623 14.4096 14.0137 14.4096 14.4746C14.4096 15.3105 14.144 15.9395 13.6127 16.3613C13.0854 16.7793 12.3022 16.9922 11.2631 17H7.80023ZM9.85687 13.373V15.418H11.2045C11.5756 15.418 11.8608 15.334 12.06 15.166C12.2592 14.9941 12.3588 14.7539 12.3588 14.4453C12.3588 13.7344 12.0053 13.377 11.2983 13.373H9.85687ZM9.85687 12.0254H10.9291C11.3784 12.0215 11.6987 11.9395 11.8901 11.7793C12.0815 11.6191 12.1772 11.3828 12.1772 11.0703C12.1772 10.7109 12.0737 10.4531 11.8666 10.2969C11.6596 10.1367 11.3256 10.0566 10.8647 10.0566H9.85687V12.0254ZM21.3173 13.3848H18.083V15.418H21.9033V17H16.0263V8.46875H21.915V10.0566H18.083V11.8555H21.3173V13.3848ZM25.2778 14.1055V17H23.2212V8.46875H26.6255C27.2778 8.46875 27.854 8.58984 28.354 8.83203C28.8579 9.07031 29.2466 9.41211 29.52 9.85742C29.7973 10.2988 29.936 10.8008 29.936 11.3633C29.936 12.1953 29.6372 12.8613 29.0395 13.3613C28.4458 13.8574 27.6294 14.1055 26.5903 14.1055H25.2778ZM25.2778 12.5176H26.6255C27.0239 12.5176 27.3266 12.418 27.5337 12.2188C27.7446 12.0195 27.8501 11.7383 27.8501 11.375C27.8501 10.9766 27.7427 10.6582 27.5278 10.4199C27.313 10.1816 27.02 10.0605 26.6489 10.0566H25.2778V12.5176ZM34.3945 11.3047L35.7891 8.46875H38.1387L35.7539 12.6992L38.2031 17H35.8301L34.3945 14.1113L32.959 17H30.5918L33.0352 12.6992L30.6562 8.46875H33L34.3945 11.3047ZM46.4878 17H44.4429V13.4375H41.4136V17H39.357V8.46875H41.4136V11.8555H44.4429V8.46875H46.4878V17ZM51.9483 17V14.0059H50.7647L49.3233 17H47.0909L48.8428 13.3086C48.0811 12.8125 47.7002 12.084 47.7002 11.123C47.7002 10.2793 47.9776 9.62695 48.5323 9.16602C49.087 8.70117 49.8858 8.46875 50.9287 8.46875H54.0108V17H51.9483ZM49.751 11.3047C49.751 11.7383 49.8389 12.0527 50.0147 12.248C50.1905 12.4434 50.4854 12.541 50.8995 12.541H51.9483V10.0566H50.9112C50.501 10.0566 50.2041 10.1641 50.0205 10.3789C49.8409 10.5898 49.751 10.8984 49.751 11.3047ZM59.2955 17V14.0059H58.1119L56.6705 17H54.438L56.19 13.3086C55.4283 12.8125 55.0474 12.084 55.0474 11.123C55.0474 10.2793 55.3248 9.62695 55.8795 9.16602C56.4341 8.70117 57.233 8.46875 58.2759 8.46875H61.358V17H59.2955ZM57.0982 11.3047C57.0982 11.7383 57.1861 12.0527 57.3619 12.248C57.5377 12.4434 57.8326 12.541 58.2466 12.541H59.2955V10.0566H58.2584C57.8482 10.0566 57.5513 10.1641 57.3677 10.3789C57.188 10.5898 57.0982 10.8984 57.0982 11.3047ZM20.8017 28.1113C20.7744 28.7051 20.6142 29.2305 20.3213 29.6875C20.0283 30.1406 19.6162 30.4922 19.0849 30.7422C18.5576 30.9922 17.9541 31.1172 17.2744 31.1172C16.1533 31.1172 15.2705 30.752 14.6259 30.0215C13.9814 29.291 13.6591 28.2598 13.6591 26.9277V26.5059C13.6591 25.6699 13.8037 24.9395 14.0927 24.3145C14.3857 23.6855 14.8056 23.2012 15.3525 22.8613C15.8994 22.5176 16.5322 22.3457 17.2509 22.3457C18.2861 22.3457 19.1181 22.6191 19.747 23.166C20.3759 23.709 20.7334 24.459 20.8193 25.416H18.7685C18.7529 24.8965 18.622 24.5234 18.3759 24.2969C18.1298 24.0703 17.7548 23.957 17.2509 23.957C16.7392 23.957 16.3642 24.1484 16.1259 24.5312C15.8877 24.9141 15.7627 25.5254 15.7509 26.3652V26.9688C15.7509 27.8789 15.8642 28.5293 16.0908 28.9199C16.3213 29.3105 16.7158 29.5059 17.2744 29.5059C17.747 29.5059 18.1084 29.3945 18.3584 29.1719C18.6084 28.9492 18.7412 28.5957 18.7568 28.1113H20.8017ZM22.1138 22.4688H24.1587V29.418H27.2231V22.4688H29.2856V29.4355H30.5923L30.4751 33.0566H28.5356V31H22.1138V22.4688ZM37.2832 27.3848H34.0488V29.418H37.8691V31H31.9922V22.4688H37.8809V24.0566H34.0488V25.8555H37.2832V27.3848ZM46.3179 31H44.273V27.4375H41.2437V31H39.187V22.4688H41.2437V25.8555H44.273V22.4688H46.3179V31ZM53.0557 29.4062H50.2373L49.7452 31H47.5479L50.6768 22.4688H52.6104L55.7627 31H53.5537L53.0557 29.4062ZM50.7295 27.8184H52.5635L51.6436 24.8594L50.7295 27.8184Z" fill="black"/>
</svg>
