<svg width="112" height="38" viewBox="0 0 112 38" fill="none" xmlns="http://www.w3.org/2000/svg">
<rect width="112" height="38" rx="4" fill="#FFED2F"/>
<path d="M18.7428 10.0566H16.1823V17H14.1256V10.0566H11.612V8.46875H18.7428V10.0566ZM25.3869 13.3848H22.1525V15.418H25.9728V17H20.0959V8.46875H25.9845V10.0566H22.1525V11.8555H25.3869V13.3848ZM32.1364 15.4062H29.318L28.8259 17H26.6286L29.7575 8.46875H31.6911L34.8434 17H32.6345L32.1364 15.4062ZM29.8102 13.8184H31.6442L30.7243 10.8594L29.8102 13.8184ZM41.9445 10.0566H39.384V17H37.3273V10.0566H34.8137V8.46875H41.9445V10.0566ZM45.3542 14.1055V17H43.2976V8.46875H46.7019C47.3542 8.46875 47.9304 8.58984 48.4304 8.83203C48.9343 9.07031 49.323 9.41211 49.5964 9.85742C49.8738 10.2988 50.0124 10.8008 50.0124 11.3633C50.0124 12.1953 49.7136 12.8613 49.1159 13.3613C48.5222 13.8574 47.7058 14.1055 46.6667 14.1055H45.3542ZM45.3542 12.5176H46.7019C47.1003 12.5176 47.403 12.418 47.6101 12.2188C47.821 12.0195 47.9265 11.7383 47.9265 11.375C47.9265 10.9766 47.8191 10.6582 47.6042 10.4199C47.3894 10.1816 47.0964 10.0605 46.7253 10.0566H45.3542V12.5176ZM55.3967 15.4062H52.5784L52.0862 17H49.8889L53.0178 8.46875H54.9514L58.1038 17H55.8948L55.3967 15.4062ZM53.0705 13.8184H54.9045L53.9846 10.8594L53.0705 13.8184ZM66.4939 8.46875V17H64.4373V10.0566H62.5213L62.3806 12.9219C62.322 13.9102 62.1853 14.6992 61.9705 15.2891C61.7556 15.8789 61.449 16.3105 61.0505 16.584C60.656 16.8535 60.117 16.9922 59.4334 17H58.8826V15.418L59.1697 15.3887C59.5798 15.3301 59.8767 15.0801 60.0603 14.6387C60.2439 14.1934 60.363 13.4453 60.4177 12.3945L60.5642 8.46875H66.4939ZM70.3255 11.4043H71.386C72.0618 11.4043 72.6595 11.5195 73.179 11.75C73.6985 11.9805 74.097 12.3066 74.3743 12.7285C74.6555 13.1465 74.7962 13.627 74.7962 14.1699C74.7962 15.0098 74.4837 15.6914 73.8587 16.2148C73.2376 16.7383 72.4016 17 71.3509 17H68.263V8.46875H70.3255V11.4043ZM70.3255 12.9863V15.418H71.3802C71.7981 15.418 72.1282 15.3008 72.3704 15.0664C72.6165 14.832 72.7395 14.5293 72.7395 14.1582C72.7395 13.8066 72.6184 13.5234 72.3763 13.3086C72.1341 13.0938 71.7981 12.9863 71.3684 12.9863H70.3255ZM83.3445 17H81.2996V13.4375H78.2703V17H76.2137V8.46875H78.2703V11.8555H81.2996V8.46875H83.3445V17ZM90.0823 15.4062H87.264L86.7718 17H84.5745L87.7034 8.46875H89.637L92.7894 17H90.5804L90.0823 15.4062ZM87.7562 13.8184H89.5902L88.6702 10.8594L87.7562 13.8184ZM97.5702 17V14.0059H96.3866L94.9452 17H92.7127L94.4647 13.3086C93.703 12.8125 93.3221 12.084 93.3221 11.123C93.3221 10.2793 93.5995 9.62695 94.1541 9.16602C94.7088 8.70117 95.5077 8.46875 96.5506 8.46875H99.6327V17H97.5702ZM95.3729 11.3047C95.3729 11.7383 95.4608 12.0527 95.6366 12.248C95.8123 12.4434 96.1073 12.541 96.5213 12.541H97.5702V10.0566H96.5331C96.1229 10.0566 95.826 10.1641 95.6424 10.3789C95.4627 10.5898 95.3729 10.8984 95.3729 11.3047ZM26.6286 31H24.572V24.0566H21.5075V31H19.4509V22.4688H26.6286V31ZM35.5695 22.4688V31H33.5129V24.0566H31.5969L31.4562 26.9219C31.3977 27.9102 31.2609 28.6992 31.0461 29.2891C30.8312 29.8789 30.5246 30.3105 30.1262 30.584C29.7316 30.8535 29.1926 30.9922 28.509 31H27.9582V29.418L28.2453 29.3887C28.6555 29.3301 28.9523 29.0801 29.1359 28.6387C29.3195 28.1934 29.4387 27.4453 29.4934 26.3945L29.6398 22.4688H35.5695ZM44.5573 26.9102C44.5573 27.7422 44.403 28.4785 44.0945 29.1191C43.7859 29.7598 43.3464 30.2539 42.7761 30.6016C42.2097 30.9453 41.5632 31.1172 40.8366 31.1172C40.1101 31.1172 39.4655 30.9512 38.903 30.6191C38.3405 30.2832 37.9011 29.8047 37.5847 29.1836C37.2722 28.5625 37.1081 27.8496 37.0925 27.0449V26.5645C37.0925 25.7285 37.2448 24.9922 37.5495 24.3555C37.8581 23.7148 38.2976 23.2207 38.8679 22.873C39.4421 22.5254 40.0945 22.3516 40.8249 22.3516C41.5476 22.3516 42.1921 22.5234 42.7585 22.8672C43.3249 23.2109 43.7644 23.7012 44.0769 24.3379C44.3933 24.9707 44.5534 25.6973 44.5573 26.5176V26.9102ZM42.4655 26.5527C42.4655 25.7051 42.323 25.0625 42.0378 24.625C41.7566 24.1836 41.3523 23.9629 40.8249 23.9629C39.7937 23.9629 39.2487 24.7363 39.1902 26.2832L39.1843 26.9102C39.1843 27.7461 39.323 28.3887 39.6003 28.8379C39.8777 29.2871 40.2898 29.5117 40.8366 29.5117C41.3562 29.5117 41.7566 29.291 42.0378 28.8496C42.3191 28.4082 42.4616 27.7734 42.4655 26.9453V26.5527ZM48.1135 22.4688V29.418H50.2346V22.4688H52.2913V29.418H54.3889V22.4688H56.4338V29.4824H57.6995L57.5823 33.0508H55.719V31H46.0569V22.4688H48.1135ZM64.0798 29.4062H61.2615L60.7693 31H58.572L61.7009 22.4688H63.6345L66.7869 31H64.5779L64.0798 29.4062ZM61.7537 27.8184H63.5877L62.6677 24.8594L61.7537 27.8184ZM75.9915 33.0977H74.1458V31H69.4993V33.0918H67.595L67.4485 29.418H68.052C68.3684 29.207 68.6223 28.8457 68.8138 28.334C69.0091 27.8184 69.1477 27.0801 69.2298 26.1191L69.4934 22.4688H75.3001V29.418H76.2083L75.9915 33.0977ZM70.3782 29.418H73.2493V24.0566H71.4329L71.2747 26.1895C71.1575 27.5723 70.8587 28.6484 70.3782 29.418ZM80.4148 27.625H79.4422V31H77.3855V22.4688H79.4422V25.7676H80.2332L81.8738 22.4688H84.3641L82.0203 26.4062L84.657 31H82.2254L80.4148 27.625ZM90.4925 29.4062H87.6741L87.182 31H84.9847L88.1136 22.4688H90.0472L93.1995 31H90.9905L90.4925 29.4062ZM88.1663 27.8184H90.0003L89.0804 24.8594L88.1663 27.8184Z" fill="black"/>
</svg>
