<svg width="69" height="38" viewBox="0 0 69 38" fill="none" xmlns="http://www.w3.org/2000/svg">
<rect width="69" height="38" rx="4" fill="#FDF151"/>
<path d="M15.3 17H13.2551V13.4375H10.2258V17H8.16914V8.46875H10.2258V11.8555H13.2551V8.46875H15.3V17ZM22.0905 8.46875H24.1472V17H22.0905V11.6211L19.0261 17H16.9695V8.46875H19.0261V13.8535L22.0905 8.46875ZM33.7561 13.666H32.7131V17H30.6682V13.666H29.6077L27.967 17H25.4123L27.9846 12.3418L25.4885 8.46875H28.0842L29.8303 11.8145H30.6682V8.46875H32.7131V11.8145H33.5452L35.2151 8.46875H37.8049L35.3733 12.3301L37.8928 17H35.3264L33.7561 13.666ZM46.1189 17H44.074V13.4375H41.0447V17H38.988V8.46875H41.0447V11.8555H44.074V8.46875H46.1189V17ZM51.5794 17V14.0059H50.3958L48.9544 17H46.722L48.4739 13.3086C47.7122 12.8125 47.3313 12.084 47.3313 11.123C47.3313 10.2793 47.6087 9.62695 48.1634 9.16602C48.718 8.70117 49.5169 8.46875 50.5598 8.46875H53.6419V17H51.5794ZM49.3821 11.3047C49.3821 11.7383 49.47 12.0527 49.6458 12.248C49.8216 12.4434 50.1165 12.541 50.5305 12.541H51.5794V10.0566H50.5423C50.1321 10.0566 49.8352 10.1641 49.6516 10.3789C49.472 10.5898 49.3821 10.8984 49.3821 11.3047ZM58.9266 17V14.0059H57.743L56.3016 17H54.0691L55.8211 13.3086C55.0594 12.8125 54.6785 12.084 54.6785 11.123C54.6785 10.2793 54.9559 9.62695 55.5105 9.16602C56.0652 8.70117 56.8641 8.46875 57.907 8.46875H60.9891V17H58.9266ZM56.7293 11.3047C56.7293 11.7383 56.8172 12.0527 56.993 12.248C57.1688 12.4434 57.4637 12.541 57.8777 12.541H58.9266V10.0566H57.8895C57.4793 10.0566 57.1824 10.1641 56.9988 10.3789C56.8191 10.5898 56.7293 10.8984 56.7293 11.3047ZM20.8017 28.1113C20.7744 28.7051 20.6142 29.2305 20.3213 29.6875C20.0283 30.1406 19.6162 30.4922 19.0849 30.7422C18.5576 30.9922 17.9541 31.1172 17.2744 31.1172C16.1533 31.1172 15.2705 30.752 14.6259 30.0215C13.9814 29.291 13.6591 28.2598 13.6591 26.9277V26.5059C13.6591 25.6699 13.8037 24.9395 14.0927 24.3145C14.3857 23.6855 14.8056 23.2012 15.3525 22.8613C15.8994 22.5176 16.5322 22.3457 17.2509 22.3457C18.2861 22.3457 19.1181 22.6191 19.747 23.166C20.3759 23.709 20.7334 24.459 20.8193 25.416H18.7685C18.7529 24.8965 18.622 24.5234 18.3759 24.2969C18.1298 24.0703 17.7548 23.957 17.2509 23.957C16.7392 23.957 16.3642 24.1484 16.1259 24.5312C15.8877 24.9141 15.7627 25.5254 15.7509 26.3652V26.9688C15.7509 27.8789 15.8642 28.5293 16.0908 28.9199C16.3213 29.3105 16.7158 29.5059 17.2744 29.5059C17.747 29.5059 18.1084 29.3945 18.3584 29.1719C18.6084 28.9492 18.7412 28.5957 18.7568 28.1113H20.8017ZM22.1138 22.4688H24.1587V29.418H27.2231V22.4688H29.2856V29.4355H30.5923L30.4751 33.0566H28.5356V31H22.1138V22.4688ZM37.2832 27.3848H34.0488V29.418H37.8691V31H31.9922V22.4688H37.8809V24.0566H34.0488V25.8555H37.2832V27.3848ZM46.3179 31H44.273V27.4375H41.2437V31H39.187V22.4688H41.2437V25.8555H44.273V22.4688H46.3179V31ZM53.0557 29.4062H50.2373L49.7452 31H47.5479L50.6768 22.4688H52.6104L55.7627 31H53.5537L53.0557 29.4062ZM50.7295 27.8184H52.5635L51.6436 24.8594L50.7295 27.8184Z" fill="black"/>
</svg>
