<svg width="97" height="38" viewBox="0 0 97 38" fill="none" xmlns="http://www.w3.org/2000/svg">
<rect width="97" height="38" fill="#FF8A00"/>
<path d="M29.3 17H27.2551V13.4375H24.2258V17H22.1691V8.46875H24.2258V11.8555H27.2551V8.46875H29.3V17ZM36.0906 8.46875H38.1472V17H36.0906V11.6211L33.0261 17H30.9695V8.46875H33.0261V13.8535L36.0906 8.46875ZM47.7561 13.666H46.7131V17H44.6682V13.666H43.6077L41.967 17H39.4123L41.9846 12.3418L39.4885 8.46875H42.0842L43.8303 11.8145H44.6682V8.46875H46.7131V11.8145H47.5452L49.2151 8.46875H51.8049L49.3733 12.3301L51.8928 17H49.3264L47.7561 13.666ZM60.1189 17H58.074V13.4375H55.0447V17H52.9881V8.46875H55.0447V11.8555H58.074V8.46875H60.1189V17ZM65.5794 17V14.0059H64.3958L62.9544 17H60.722L62.4739 13.3086C61.7122 12.8125 61.3313 12.084 61.3313 11.123C61.3313 10.2793 61.6087 9.62695 62.1634 9.16602C62.718 8.70117 63.5169 8.46875 64.5598 8.46875H67.6419V17H65.5794ZM63.3821 11.3047C63.3821 11.7383 63.47 12.0527 63.6458 12.248C63.8216 12.4434 64.1165 12.541 64.5305 12.541H65.5794V10.0566H64.5423C64.1321 10.0566 63.8352 10.1641 63.6516 10.3789C63.472 10.5898 63.3821 10.8984 63.3821 11.3047ZM72.9266 17V14.0059H71.743L70.3016 17H68.0691L69.8211 13.3086C69.0594 12.8125 68.6785 12.084 68.6785 11.123C68.6785 10.2793 68.9559 9.62695 69.5106 9.16602C70.0652 8.70117 70.8641 8.46875 71.907 8.46875H74.9891V17H72.9266ZM70.7293 11.3047C70.7293 11.7383 70.8172 12.0527 70.993 12.248C71.1688 12.4434 71.4637 12.541 71.8777 12.541H72.9266V10.0566H71.8895C71.4793 10.0566 71.1824 10.1641 70.9988 10.3789C70.8191 10.5898 70.7293 10.8984 70.7293 11.3047ZM34.8017 28.1113C34.7744 28.7051 34.6142 29.2305 34.3213 29.6875C34.0283 30.1406 33.6162 30.4922 33.0849 30.7422C32.5576 30.9922 31.9541 31.1172 31.2744 31.1172C30.1533 31.1172 29.2705 30.752 28.6259 30.0215C27.9814 29.291 27.6591 28.2598 27.6591 26.9277V26.5059C27.6591 25.6699 27.8037 24.9395 28.0927 24.3145C28.3857 23.6855 28.8056 23.2012 29.3525 22.8613C29.8994 22.5176 30.5322 22.3457 31.2509 22.3457C32.2861 22.3457 33.1181 22.6191 33.747 23.166C34.3759 23.709 34.7334 24.459 34.8193 25.416H32.7685C32.7529 24.8965 32.622 24.5234 32.3759 24.2969C32.1298 24.0703 31.7548 23.957 31.2509 23.957C30.7392 23.957 30.3642 24.1484 30.1259 24.5312C29.8877 24.9141 29.7627 25.5254 29.7509 26.3652V26.9688C29.7509 27.8789 29.8642 28.5293 30.0908 28.9199C30.3213 29.3105 30.7158 29.5059 31.2744 29.5059C31.747 29.5059 32.1084 29.3945 32.3584 29.1719C32.6084 28.9492 32.7412 28.5957 32.7568 28.1113H34.8017ZM36.1138 22.4688H38.1587V29.418H41.2231V22.4688H43.2856V29.4355H44.5923L44.4751 33.0566H42.5356V31H36.1138V22.4688ZM51.2832 27.3848H48.0488V29.418H51.8691V31H45.9922V22.4688H51.8809V24.0566H48.0488V25.8555H51.2832V27.3848ZM60.3179 31H58.273V27.4375H55.2437V31H53.187V22.4688H55.2437V25.8555H58.273V22.4688H60.3179V31ZM67.0557 29.4062H64.2373L63.7452 31H61.5479L64.6768 22.4688H66.6104L69.7627 31H67.5538L67.0557 29.4062ZM64.7295 27.8184H66.5635L65.6436 24.8594L64.7295 27.8184Z" fill="white"/>
</svg>
