<svg width="97" height="38" viewBox="0 0 97 38" fill="none" xmlns="http://www.w3.org/2000/svg">
<rect width="97" height="38" fill="#FF8A00"/>
<path d="M21.8002 17V8.46875H24.8647C25.9623 8.46875 26.7963 8.66992 27.3666 9.07227C27.9409 9.47461 28.228 10.0586 28.228 10.8242C28.228 11.2656 28.1264 11.6426 27.9233 11.9551C27.7202 12.2676 27.4213 12.498 27.0268 12.6465C27.4721 12.7637 27.8139 12.9824 28.0522 13.3027C28.2905 13.623 28.4096 14.0137 28.4096 14.4746C28.4096 15.3105 28.144 15.9395 27.6127 16.3613C27.0854 16.7793 26.3022 16.9922 25.2631 17H21.8002ZM23.8569 13.373V15.418H25.2045C25.5756 15.418 25.8608 15.334 26.06 15.166C26.2592 14.9941 26.3588 14.7539 26.3588 14.4453C26.3588 13.7344 26.0053 13.377 25.2983 13.373H23.8569ZM23.8569 12.0254H24.9291C25.3784 12.0215 25.6987 11.9395 25.8901 11.7793C26.0815 11.6191 26.1772 11.3828 26.1772 11.0703C26.1772 10.7109 26.0737 10.4531 25.8666 10.2969C25.6596 10.1367 25.3256 10.0566 24.8647 10.0566H23.8569V12.0254ZM35.3173 13.3848H32.083V15.418H35.9033V17H30.0263V8.46875H35.915V10.0566H32.083V11.8555H35.3173V13.3848ZM39.2778 14.1055V17H37.2212V8.46875H40.6255C41.2778 8.46875 41.854 8.58984 42.354 8.83203C42.8579 9.07031 43.2466 9.41211 43.52 9.85742C43.7973 10.2988 43.936 10.8008 43.936 11.3633C43.936 12.1953 43.6372 12.8613 43.0395 13.3613C42.4458 13.8574 41.6294 14.1055 40.5903 14.1055H39.2778ZM39.2778 12.5176H40.6255C41.0239 12.5176 41.3266 12.418 41.5337 12.2188C41.7446 12.0195 41.8501 11.7383 41.8501 11.375C41.8501 10.9766 41.7427 10.6582 41.5278 10.4199C41.313 10.1816 41.02 10.0605 40.6489 10.0566H39.2778V12.5176ZM48.3945 11.3047L49.7891 8.46875H52.1387L49.7539 12.6992L52.2031 17H49.8301L48.3945 14.1113L46.959 17H44.5918L47.0352 12.6992L44.6562 8.46875H47L48.3945 11.3047ZM60.4878 17H58.4429V13.4375H55.4136V17H53.3569V8.46875H55.4136V11.8555H58.4429V8.46875H60.4878V17ZM65.9483 17V14.0059H64.7647L63.3233 17H61.0909L62.8428 13.3086C62.0811 12.8125 61.7002 12.084 61.7002 11.123C61.7002 10.2793 61.9776 9.62695 62.5323 9.16602C63.087 8.70117 63.8858 8.46875 64.9287 8.46875H68.0108V17H65.9483ZM63.751 11.3047C63.751 11.7383 63.8389 12.0527 64.0147 12.248C64.1905 12.4434 64.4854 12.541 64.8995 12.541H65.9483V10.0566H64.9112C64.501 10.0566 64.2041 10.1641 64.0205 10.3789C63.8409 10.5898 63.751 10.8984 63.751 11.3047ZM73.2955 17V14.0059H72.1119L70.6705 17H68.438L70.19 13.3086C69.4283 12.8125 69.0474 12.084 69.0474 11.123C69.0474 10.2793 69.3248 9.62695 69.8794 9.16602C70.4341 8.70117 71.233 8.46875 72.2759 8.46875H75.358V17H73.2955ZM71.0982 11.3047C71.0982 11.7383 71.1861 12.0527 71.3619 12.248C71.5377 12.4434 71.8326 12.541 72.2466 12.541H73.2955V10.0566H72.2584C71.8482 10.0566 71.5513 10.1641 71.3677 10.3789C71.188 10.5898 71.0982 10.8984 71.0982 11.3047ZM34.8017 28.1113C34.7744 28.7051 34.6142 29.2305 34.3212 29.6875C34.0283 30.1406 33.6162 30.4922 33.0849 30.7422C32.5576 30.9922 31.9541 31.1172 31.2744 31.1172C30.1533 31.1172 29.2705 30.752 28.6259 30.0215C27.9814 29.291 27.6591 28.2598 27.6591 26.9277V26.5059C27.6591 25.6699 27.8037 24.9395 28.0927 24.3145C28.3857 23.6855 28.8056 23.2012 29.3525 22.8613C29.8994 22.5176 30.5322 22.3457 31.2509 22.3457C32.2861 22.3457 33.1181 22.6191 33.747 23.166C34.3759 23.709 34.7334 24.459 34.8193 25.416H32.7685C32.7529 24.8965 32.622 24.5234 32.3759 24.2969C32.1298 24.0703 31.7548 23.957 31.2509 23.957C30.7392 23.957 30.3642 24.1484 30.1259 24.5312C29.8877 24.9141 29.7627 25.5254 29.7509 26.3652V26.9688C29.7509 27.8789 29.8642 28.5293 30.0908 28.9199C30.3212 29.3105 30.7158 29.5059 31.2744 29.5059C31.747 29.5059 32.1084 29.3945 32.3584 29.1719C32.6084 28.9492 32.7412 28.5957 32.7568 28.1113H34.8017ZM36.1137 22.4688H38.1587V29.418H41.2231V22.4688H43.2856V29.4355H44.5923L44.4751 33.0566H42.5356V31H36.1137V22.4688ZM51.2832 27.3848H48.0488V29.418H51.8691V31H45.9922V22.4688H51.8809V24.0566H48.0488V25.8555H51.2832V27.3848ZM60.3179 31H58.273V27.4375H55.2437V31H53.187V22.4688H55.2437V25.8555H58.273V22.4688H60.3179V31ZM67.0557 29.4062H64.2373L63.7452 31H61.5479L64.6768 22.4688H66.6104L69.7627 31H67.5537L67.0557 29.4062ZM64.7295 27.8184H66.5635L65.6436 24.8594L64.7295 27.8184Z" fill="white"/>
</svg>
