<svg width="37" height="37" viewBox="0 0 37 37" fill="none" xmlns="http://www.w3.org/2000/svg">
<path d="M2.89126 21.0598C1.29446 19.5331 1.26633 17.0293 2.82843 15.4672L15.4672 2.82842C17.0293 1.26632 19.5901 1.23755 21.1869 2.76415L34.1064 15.1157C35.7032 16.6423 35.7313 19.1462 34.1692 20.7083L21.5305 33.3471C19.9684 34.9092 17.4076 34.9379 15.8108 33.4113L2.89126 21.0598Z" fill="#C4AB6A"/>
<path d="M16.6483 19.0824L17.5452 14.1786H19.4144L17.7547 21.9989H15.7996L14.7523 17.5409L13.7264 21.9989H11.7767L10.1116 14.1786H11.9861L12.8831 19.0824L13.9573 14.1786H15.5579L16.6483 19.0824ZM26.5874 19.3509C26.5623 19.8952 26.4155 20.3768 26.1469 20.7957C25.8784 21.2111 25.5006 21.5334 25.0136 21.7625C24.5302 21.9917 23.977 22.1063 23.354 22.1063C22.3263 22.1063 21.517 21.7715 20.9262 21.1019C20.3354 20.4323 20.04 19.487 20.04 18.266V17.8792C20.04 17.113 20.1725 16.4434 20.4375 15.8705C20.706 15.294 21.0909 14.8499 21.5922 14.5384C22.0935 14.2233 22.6736 14.0658 23.3325 14.0658C24.2814 14.0658 25.0441 14.3164 25.6206 14.8177C26.1971 15.3154 26.5247 16.0029 26.6035 16.8802H24.7236C24.7093 16.404 24.5893 16.062 24.3637 15.8543C24.1381 15.6467 23.7944 15.5428 23.3325 15.5428C22.8634 15.5428 22.5196 15.7183 22.3012 16.0692C22.0828 16.4201 21.9682 16.9805 21.9575 17.7503V18.3036C21.9575 19.1379 22.0613 19.7341 22.269 20.0921C22.4803 20.4502 22.8419 20.6292 23.354 20.6292C23.7872 20.6292 24.1184 20.5272 24.3476 20.3231C24.5768 20.119 24.6985 19.7949 24.7128 19.3509H26.5874Z" fill="black"/>
</svg>
