<svg width="40" height="40" viewBox="0 0 40 40" fill="none" xmlns="http://www.w3.org/2000/svg">
<path d="M20 0C11.7266 0 5 6.72656 5 15C5 25.3984 18.5391 39.0547 19.1172 39.6328C19.3594 39.875 19.6797 40 20 40C20.3203 40 20.6406 39.875 20.8828 39.6328C21.4609 39.0547 35 25.3984 35 15C35 6.72656 28.2734 0 20 0Z" fill="black"/>
<path d="M16.9062 10.7896L18.5078 16.7974L19.9063 10.7896H22.5078L19.9688 20.1333H17.4297L15.8281 14.3286L14.2266 20.1333H11.6875L9.14844 10.7896H11.75L13.1484 16.7974L14.75 10.7896H16.9062Z" fill="white"/>
<path d="M30.125 20C28.1406 20.1797 26.4922 20.2656 25.1875 20.2656C24.3125 20.2656 23.6719 20.0625 23.2656 19.6484C22.8594 19.2422 22.6484 18.6016 22.6484 17.7266V13.4531C22.6484 12.5156 22.8594 11.8438 23.2813 11.4141C23.7031 10.9922 24.3828 10.7812 25.3203 10.7812H30.125V12.6563H25.8516C25.3203 12.6563 25.0469 12.9219 25.0469 13.4609V17.7344C25.0469 17.9375 25.1094 18.1016 25.2266 18.2188C25.3437 18.3359 25.5 18.3984 25.6875 18.3984C25.875 18.3984 26.0781 18.3984 26.3047 18.3906C26.5234 18.3828 26.7578 18.3828 27 18.3672C27.2422 18.3594 27.4844 18.3516 27.7266 18.3438C27.9687 18.3359 28.2891 18.3203 28.6719 18.2891C29.0547 18.2578 29.5391 18.2344 30.1172 18.1953V20H30.125Z" fill="white"/>
</svg>
