<svg width="386" height="318" fill="none" xmlns="http://www.w3.org/2000/svg"><path d="M73.135 61.33V43.557H28.441L48.756 9.011 32.25 0 2.792 52.318l29.458 52.568 16.506-9.012L28.441 61.33h44.694zM119.863 0L103.61 9.012l20.062 34.544h-44.44V61.33h44.44L103.61 95.874l16.253 9.012 29.204-52.568L119.863 0zm248.361 271.853c0 15.019-12.444 27.035-27.427 27.035-8.888 0-16.506-4.005-21.331-10.263l29.204-64.334 16.252-35.546s-43.171 22.78-60.439 27.035L219.665 69.59H203.92l-7.618 13.268 80.501 138.68c-20.062 3.254-46.218 6.007-78.978 6.258v26.284c53.075-.501 90.405-6.759 113.768-13.017l-13.967 30.289-6.094 13.267.254.251c-4.317 7.51-11.936 12.766-20.824 13.768v17.773c13.713-1.002 25.649-7.76 33.267-18.024 8.38 11.015 21.332 18.274 36.314 18.274 24.887 0 45.457-20.276 45.457-44.808h-17.776z" fill="#fff"/><path d="M240.486 271.853H222.71c0 15.019-12.444 27.035-27.426 27.035-14.983 0-27.681-12.016-27.681-27.035h-17.776c0 14.018-10.666 25.283-24.379 26.785v17.773c13.713-1.001 25.649-7.76 33.267-18.024 8.38 11.015 21.332 18.274 36.315 18.274a45.039 45.039 0 0036.314-18.274c7.618 10.264 19.554 17.273 33.267 18.024v-17.773c-13.459-1.252-24.125-12.767-24.125-26.785z" fill="#fff"/><path d="M271.215 37.048h-86.342L81.771 215.78c-17.269-4.506-63.487-28.537-63.487-28.537l54.853 91.619-4.064 7.009c-4.824 8.01-13.713 13.518-23.617 13.518-15.236 0-27.426-12.266-27.426-27.035H0c0 24.531 20.316 44.808 45.456 44.808 16.507 0 30.474-8.511 38.6-21.278 7.619 12.016 20.316 20.276 35.553 21.278v-17.773c-9.142-1.002-16.761-6.509-21.078-14.269l.254-.25-6.602-12.767-15.491-29.788c23.871 6.007 61.455 12.265 114.784 12.516v-26.535c-34.283 0-61.455-2.753-82.279-6.258l69.073-119.405 22.094-38.8h70.597l-8.634-13.267 8.888-13.518z" fill="#fff"/></svg>