<svg width="149" height="47" fill="none" xmlns="http://www.w3.org/2000/svg"><path d="M95.21 36.352h-3.09v2.717h3.09v4.92h3.13v-12.3h-3.13v4.663zm-15.532 2.423h6.928v-1.359c0-.918-.111-1.725-.372-2.46a5.784 5.784 0 00-1.08-1.872 4.594 4.594 0 00-1.714-1.175c-.67-.294-1.415-.404-2.272-.404-.857 0-1.602.147-2.273.44a4.78 4.78 0 00-1.713 1.249 6.362 6.362 0 00-1.08 1.983c-.261.77-.373 1.652-.373 2.607 0 4.185 1.937 6.315 5.774 6.315a8.06 8.06 0 001.378-.11c.41-.073.82-.183 1.192-.33.187-.074.373-.147.559-.257.149-.074.335-.184.484-.294.15-.11.335-.257.522-.404.186-.147.372-.33.633-.55l-1.9-1.837c-.26.257-.484.477-.67.588a8.55 8.55 0 01-.596.33c-.447.184-.894.257-1.453.257-1.75 0-2.682-.881-2.794-2.643v-.147c0-.33-.037-1.249 0-2.277.037-.771.261-1.359.67-1.8.41-.44 1.006-.697 1.714-.697.745 0 1.304.22 1.714.661.41.44.633 1.102.707 1.946H79.79v2.203h-.112v.037zm11.547-2.423v-4.664h-3.091V43.99h3.091v-7.638zm50.66-16.634h-.037v-4.663h-3.092v12.3h3.092v-4.92h.037v-2.717zm4.023-4.663v4.663h-3.166v2.717h3.166v4.92H149v-12.3h-3.092zm-39.746 9.62c-.558-.073-.968-.33-1.229-.771-.335-.514-.521-1.395-.521-2.57 0-.404 0-.808.037-1.249.037-.44.112-.844.223-1.212.149-.367.336-.66.634-.918.223-.183.484-.257.819-.33v-2.79c-1.415.073-2.533.587-3.39 1.505-.26.257-.484.55-.67.881a4.335 4.335 0 00-.447 1.028 6.177 6.177 0 00-.224 1.285c-.037.478-.074.992-.074 1.616 0 .624.037 1.175.074 1.652.038.478.112.918.224 1.285.112.368.261.735.447 1.029.186.293.41.587.67.88.894.919 2.049 1.433 3.39 1.506l.037-2.827zm5.402-6.389a5.26 5.26 0 00-1.081-1.873c-.893-.918-2.048-1.395-3.389-1.505v2.79c.298.037.558.147.745.294.298.22.521.514.67.845.149.33.224.734.261 1.138.037.404.037.808.037 1.212 0 .404 0 .844-.037 1.248s-.112.808-.261 1.138c-.149.33-.372.625-.633.845-.186.147-.447.257-.782.294v2.79c1.415-.073 2.533-.587 3.389-1.505.261-.257.485-.55.671-.881.186-.294.335-.661.447-1.029.112-.367.186-.807.224-1.285.037-.477.074-1.028.074-1.689-.037-1.175-.112-2.13-.335-2.827zM67.013 40.427c.149-.587.298-1.248.447-1.983.186-1.064.298-2.423.298-4.038h2.793v5.985h3.092v-8.74h-8.828c0 1.322-.037 2.46-.075 3.379a22.855 22.855 0 01-.223 2.533c-.112.735-.224 1.396-.373 1.983-.074.294-.149.55-.223.808h3.092v.073zm7.822.845H62.207V47h2.943v-3.011h7.115V47h2.943v-5.728h-.373zm28.646.33v-9.914h-3.055V43.99h3.055v-2.387zm6.779-3.121c-.186-.477-.484-.881-.857-1.248a4.295 4.295 0 00-1.303-.808 5.08 5.08 0 00-1.714-.294H104.3v2.387h1.527c.522 0 .932.147 1.192.404.298.294.447.66.447 1.101 0 .478-.149.845-.447 1.139-.298.293-.707.404-1.192.404H104.3v2.386h2.086a5.03 5.03 0 001.676-.293 4.057 4.057 0 001.341-.808c.373-.33.671-.771.857-1.249a4.417 4.417 0 00.298-1.579c0-.55-.074-1.064-.298-1.542zM67.832 19.718h3.13v2.717h-3.13v4.92h-3.091v-12.3h3.091v4.663zm4.023 0v-4.663h3.092v12.3h-3.092v-7.637zm60.829-3.158l-3.501 5.838-.037-7.343h-3.092v12.3h3.092l3.538-5.985v-4.81zm.895-1.505l-.038.036v4.774l.038-.037v7.527h3.129v-12.3h-3.129zM81.056 20.93v4.883l3.539-5.985v7.527h3.129v-12.3h-3.13l-3.538 5.875zm-.856-.514l-.038-5.361H77.07v12.3h3.092l.037-.036v-6.903zm12.702 4.149v-8.556h.037v-.954h-3.13v12.3h3.13v-2.79h-.037zm7.04.073c-.298 0-.522-.037-.67-.147-.15-.11-.299-.293-.41-.587l-.596-1.469c-.187-.44-.373-.771-.596-.991-.224-.22-.56-.404-.932-.551.56-.22.969-.588 1.192-1.175l.373-1.175c.112-.367.26-.588.447-.698.149-.11.41-.183.782-.183h.447v-2.644h-1.117c-.82 0-1.453.147-1.937.477-.447.33-.82.845-1.08 1.58l-.597 1.652c-.111.33-.335.587-.596.807a1.53 1.53 0 01-.894.294h-.074v2.57c.298.037.596.074.857.184.335.11.596.44.82.955l.67 1.726c.335.844.782 1.431 1.303 1.725.522.294 1.23.44 2.124.44h1.005v-2.716h-.521v-.074zm18.96-9.583h-3.986c0 1.542-.037 2.827-.074 3.892a39.42 39.42 0 01-.187 2.717c-.074.734-.186 1.285-.335 1.726-.112.404-.261.734-.447.954-.186.22-.372.331-.559.404a4.147 4.147 0 01-.67.074h-.373v2.607h1.155c.745 0 1.416-.11 1.974-.33.559-.22 1.043-.698 1.416-1.36.372-.697.633-1.652.819-2.937.187-1.248.261-2.937.261-4.957h1.043v-2.79h-.037zm.894 0v2.717h1.043v9.584h3.092V15.054h-4.135zM10.728 8.996V6.39H4.172l2.98-5.067L4.73 0 .41 7.674l4.32 7.711 2.422-1.322-2.98-5.067h6.556zM17.582 0l-2.384 1.322 2.943 5.067h-6.519v2.607h6.519l-2.943 5.067 2.384 1.322 4.284-7.71L17.582 0zm36.43 39.877c0 2.203-1.825 3.965-4.023 3.965-1.303 0-2.42-.587-3.129-1.505l4.284-9.437 2.384-5.214s-6.332 3.341-8.865 3.966L32.22 10.208h-2.31l-1.117 1.946 11.808 20.342c-2.942.477-6.78.881-11.584.918v3.855c7.785-.073 13.26-.99 16.688-1.909l-2.05 4.443-.893 1.946.037.037a4.051 4.051 0 01-3.054 2.02v2.607c2.011-.147 3.762-1.139 4.88-2.644 1.229 1.615 3.128 2.68 5.326 2.68 3.65 0 6.668-2.974 6.668-6.572h-2.608z" fill="#fff"/><path d="M35.276 39.877h-2.608c0 2.203-1.825 3.965-4.023 3.965-2.198 0-4.06-1.762-4.06-3.965h-2.608c0 2.056-1.564 3.708-3.576 3.928v2.608c2.012-.147 3.763-1.139 4.88-2.644 1.23 1.615 3.13 2.68 5.327 2.68a6.607 6.607 0 005.327-2.68 6.52 6.52 0 004.88 2.644v-2.607c-1.975-.184-3.54-1.873-3.54-3.93z" fill="#fff"/><path d="M39.783 5.434H27.118L11.995 31.652c-2.534-.661-9.313-4.186-9.313-4.186l8.046 13.439-.596 1.028c-.708 1.175-2.011 1.983-3.464 1.983-2.235 0-4.023-1.8-4.023-3.966H0c0 3.598 2.98 6.573 6.668 6.573 2.421 0 4.47-1.249 5.662-3.121 1.117 1.762 2.98 2.974 5.215 3.12v-2.606c-1.341-.147-2.459-.955-3.092-2.093l.037-.037-.968-1.873-2.273-4.37c3.502.882 9.015 1.8 16.838 1.837v-3.893c-5.03 0-9.015-.403-12.07-.918L26.15 15.055l3.24-5.692h10.356l-1.267-1.946 1.304-1.983z" fill="#fff"/></svg>