<svg width="60" height="60" fill="none" xmlns="http://www.w3.org/2000/svg"><path d="M39.896 28.827L27.437 19.77a1.502 1.502 0 00-2.386 1.212V39.09a1.498 1.498 0 002.386 1.21l12.459-9.05c.393-.289.623-.736.623-1.211a1.491 1.491 0 00-.623-1.212z" fill="#fff"/><path d="M30.001.005C13.429.005 0 13.435 0 30.005c0 16.567 13.43 29.992 30.001 29.992C46.569 59.997 60 46.57 60 30.006 60.002 13.434 46.569.005 30.001.005zm0 54.986c-13.8 0-24.99-11.183-24.99-24.985 0-13.797 11.19-24.994 24.99-24.994 13.799 0 24.985 11.195 24.985 24.994C54.99 43.808 43.8 54.99 30.002 54.99z" fill="#fff"/></svg>